<svg xmlns="http://www.w3.org/2000/svg" width="800" height="500" viewBox="0 0 800 500"><g id="Layer_2" data-name="Layer 2"><g id="Layer_1-2" data-name="Layer 1"><rect width="800" height="500" fill="#222" opacity="0"/><polygon points="417.671 227.215 417.671 230.121 422.972 230.121 422.973 235.815 425.878 235.815 425.878 227.215 417.671 227.215" fill="#222"/><rect x="417.6712" y="232.9096" width="2.9059" height="2.9049" fill="#222"/><line x1="356.8513" y1="237.7174" x2="353.8535" y2="239.067" fill="none"/><polygon points="422.973 238.603 422.973 259.474 420.577 262.282 420.577 238.603 417.671 238.603 417.671 269.518 425.877 260.92 425.878 260.918 425.878 238.603 422.973 238.603" fill="#222"/><path d="M390.5247,262.2773l-2.785,2.9241h11.0444v2.66H381.6219l13.0873-13.6871c4.2234-4.4248,6.3652-8.91,6.3652-13.3327,0-8.7525-7.03-13.4753-13.6444-13.4753-5.5,0-9.7514,2.1472-12.6376,6.3815l-.1432.21,2.2547,1.841a26.0485,26.0485,0,0,1,1.856-2.2561,11.643,11.643,0,0,1,8.67-3.2528c5.1971,0,10.72,3.6978,10.72,10.5512,0,3.6522-1.8811,7.4679-5.5912,11.3421l-14.8984,15.6019V263.57l12.5943-13.2887c1.95-2.0771,4.8974-5.2156,4.8974-9.13a10.0008,10.0008,0,0,0-.2618-2.4342c-.8734-3.6113-3.7682-5.7676-7.7427-5.7676a9.5045,9.5045,0,0,0-5.1253,1.382,8.7774,8.7774,0,0,0-2.0174,1.81,13.0657,13.0657,0,0,0-1.0191,1.3574l2.2558,1.8419.1656-.2743a6.3043,6.3043,0,0,1,5.74-3.1932c2.6067,0,4.3436,1.2466,4.8888,3.5019a8.2108,8.2108,0,0,1,.1916,1.7758c0,2.8-2.3156,5.24-4.3584,7.3931L374.6492,262.5v8.2853h27.1584v-8.5077Z" fill="#222"/><polygon points="342.695 234.852 342.695 238.039 356.851 231.723 356.851 234.509 342.695 240.882 342.695 244.091 356.851 237.717 356.851 267.762 353.853 267.762 353.853 242.324 350.929 243.612 350.929 270.785 359.775 270.785 359.775 227.215 342.695 234.852" fill="#222"/><path d="M438.7927,227.2151H428.6005v8.6h10.3462c6.815,0,10.5682,4.6726,10.5682,13.1568,0,8.0268-4.1484,13.2137-10.5682,13.2137H428.6188L425.768,265.09h13.1787c8.0589,0,13.4735-6.4777,13.4735-16.1186,0-10.0582-5.0262-16.0627-13.4453-16.0627h-7.5533V230.12h7.3711c10.5543,0,16.6076,6.871,16.6076,18.8514,0,11.4857-6.6771,18.9078-17.0109,18.9078H423.3186l-2.8518,2.9058h17.9226c11.9125,0,19.9163-8.7664,19.9163-21.8136C458.3057,235.3481,451.0114,227.2151,438.7927,227.2151Z" fill="#004b87"/><rect x="365.3995" y="246.7306" width="4.539" height="4.539" fill="#004b87"/><rect x="406.59" y="246.7306" width="4.539" height="4.539" fill="#004b87"/></g></g></svg>