<?xml version="1.0" encoding="utf-8"?>
<!-- Generator: Adobe Illustrator 23.0.5, SVG Export Plug-In . SVG Version: 6.00 Build 0)  -->
<svg version="1.1" id="Layer_1" xmlns="http://www.w3.org/2000/svg" xmlns:xlink="http://www.w3.org/1999/xlink" x="0px" y="0px"
	 viewBox="0 0 1600 1200" style="enable-background:new 0 0 1600 1200;" xml:space="preserve">
<style type="text/css">
	.st0{fill:#222222;}
	.st1{fill:#004B87;}
</style>
<g>
	<path class="st0" d="M398.37,604.76c-5.66-4.7-14.57-8.43-26.48-11.08c-5.84-1.21-10.69-2.51-14.41-3.87
		c-3.7-1.35-6.63-2.87-8.71-4.51c-2.06-1.62-3.5-3.43-4.28-5.38v0c-0.79-1.97-1.19-4.22-1.19-6.7c0-2.36,0.52-4.6,1.55-6.67
		c1.03-2.06,2.53-3.86,4.44-5.34c1.93-1.49,4.3-2.7,7.03-3.59c2.74-0.9,5.84-1.35,9.23-1.35c5.41,0,10.66,0.91,15.62,2.72
		c3.4,1.24,6.82,3.01,10.22,5.3c2.71,1.83,6.39,1.17,8.37-1.44l0,0c2.19-2.9,1.43-7.04-1.62-9.01c-3.8-2.45-7.69-4.42-11.63-5.87
		c-5.87-2.16-12.81-3.26-20.65-3.26c-5.1,0-9.87,0.75-14.16,2.24c-4.3,1.49-8.09,3.57-11.26,6.18c-3.19,2.62-5.69,5.78-7.43,9.38
		c-1.75,3.6-2.63,7.62-2.63,11.94c0,4.52,0.73,8.48,2.17,11.78c1.44,3.3,3.69,6.23,6.69,8.71c2.98,2.46,6.79,4.59,11.35,6.33
		c4.53,1.73,9.92,3.28,16.02,4.6c5.57,1.21,10.2,2.49,13.76,3.8c3.55,1.3,6.36,2.76,8.35,4.35c1.97,1.57,3.36,3.34,4.14,5.24
		c0.79,1.92,1.19,4.15,1.19,6.62c0,5.32-2.12,9.67-6.3,12.92c-4.22,3.28-9.94,4.94-17.02,4.94c-7.32,0-13.87-1.24-19.47-3.69
		c-4.09-1.79-8.2-4.29-12.27-7.46c-2.61-2.04-6.38-1.63-8.52,0.9l0,0c-2.32,2.74-1.83,6.84,1.04,9.01c4.9,3.71,10,6.6,15.22,8.64
		c7.08,2.76,15,4.16,23.55,4.16c5.3,0,10.26-0.73,14.76-2.16c4.5-1.43,8.41-3.52,11.61-6.19c3.21-2.68,5.76-5.96,7.58-9.76
		c1.83-3.81,2.75-8.08,2.75-12.71C406.98,616.14,404.08,609.51,398.37,604.76z"/>
	<path class="st0" d="M428.39,557.06h30.64v91.58c0,3.67,2.98,6.65,6.65,6.65h0c3.67,0,6.65-2.98,6.65-6.65v-91.58h30.64
		c3.41,0,6.18-2.77,6.18-6.18l0,0c0-3.41-2.77-6.18-6.18-6.18h-74.57c-3.41,0-6.18,2.77-6.18,6.18l0,0
		C422.21,554.3,424.97,557.06,428.39,557.06z"/>
	<path class="st0" d="M589.86,610.38c4.03-0.75,7.83-1.99,11.29-3.67c3.69-1.79,6.92-4.06,9.6-6.75c2.69-2.69,4.81-5.91,6.29-9.56
		c1.48-3.64,2.23-7.83,2.23-12.47c0-4.96-0.97-9.54-2.86-13.6c-1.9-4.06-4.63-7.6-8.11-10.5c-3.48-2.9-7.72-5.17-12.61-6.75
		c-4.89-1.57-10.45-2.37-16.52-2.37h-41.44c-3.41,0-6.18,2.77-6.18,6.18v0c0,3.41,2.77,6.18,6.18,6.18h40.58
		c8.75,0,15.63,1.89,20.45,5.64c4.78,3.72,7.2,9.02,7.2,15.75c0,3.48-0.7,6.63-2.07,9.39c-1.38,2.75-3.31,5.1-5.76,6.99
		c-2.46,1.9-5.43,3.38-8.81,4.41c-3.4,1.03-7.15,1.54-11.17,1.54h-46.6v47.85c0,3.67,2.98,6.65,6.65,6.65l0,0
		c3.67,0,6.65-2.98,6.65-6.65v-35.96h30.64l28.11,37.67c2.32,3.11,5.98,4.95,9.86,4.95h10.18L589.86,610.38z"/>
	<path class="st0" d="M830.93,604.18l-37.14-55.64c-1.6-2.4-4.29-3.84-7.17-3.84l0,0c-4.76,0-8.63,3.86-8.63,8.63v95.47
		c0,3.59,2.91,6.49,6.49,6.49l0,0c3.59,0,6.49-2.91,6.49-6.49v-81.15l39.11,57.36l0.14,0.2h1.11l39.25-57.72v81.3
		c0,3.59,2.91,6.49,6.49,6.49h0.31c3.59,0,6.49-2.91,6.49-6.49v-95.47c0-4.76-3.86-8.63-8.63-8.63h0c-2.88,0-5.57,1.44-7.17,3.84
		L830.93,604.18z"/>
	<path class="st0" d="M966.92,604.18l-37.14-55.64c-1.6-2.4-4.29-3.84-7.17-3.84l0,0c-4.76,0-8.63,3.86-8.63,8.63v95.47
		c0,3.59,2.91,6.49,6.49,6.49l0,0c3.59,0,6.49-2.91,6.49-6.49v-81.15l39.11,57.36l0.14,0.2h1.11l39.25-57.72v81.3
		c0,3.59,2.91,6.49,6.49,6.49h0.31c3.59,0,6.49-2.91,6.49-6.49v-95.47c0-4.76-3.86-8.63-8.63-8.63l0,0c-2.88,0-5.57,1.44-7.17,3.84
		L966.92,604.18z"/>
	<path class="st0" d="M1096.8,544.71L1096.8,544.71c-3.69,0-7.03,2.16-8.55,5.52L1041,654.65l-0.29,0.65h5.66
		c4.84,0,9.22-2.84,11.2-7.25l9.66-21.53l29.42-65.76l29.26,65.76l9.52,21.48c1.97,4.44,6.37,7.3,11.22,7.3h6.25l-47.54-105.07
		C1103.83,546.86,1100.48,544.71,1096.8,544.71z"/>
	<path class="st0" d="M1266.73,578.04c-2.83-6.7-6.91-12.61-12.09-17.54c-5.19-4.93-11.46-8.84-18.64-11.61
		c-7.18-2.78-15.16-4.18-23.74-4.18h-38.53v110.59h38.53c8.58,0,16.57-1.43,23.74-4.27c7.18-2.82,13.45-6.76,18.64-11.69
		c5.19-4.93,9.26-10.85,12.09-17.62c2.83-6.76,4.27-14.12,4.27-21.88C1271,592.09,1269.57,584.75,1266.73,578.04z M1254.05,617.06
		c-2.11,5.14-5.13,9.7-8.98,13.55c-3.85,3.85-8.63,6.91-14.18,9.07c-5.55,2.16-11.83,3.26-18.63,3.26h-25.23v-85.87h25.23
		c6.8,0,13.07,1.12,18.63,3.34c5.55,2.21,10.33,5.29,14.18,9.14c3.85,3.84,6.88,8.46,8.98,13.71c2.11,5.25,3.18,10.93,3.18,16.9
		C1257.23,606.23,1256.16,611.92,1254.05,617.06z"/>
	<g>
		<path class="st0" d="M754.34,586.27c0.66,2.55,1.13,5.16,1.41,7.77h-13.09c-0.39-2.73-1.05-5.42-1.98-8.04
			c-1.84-5.21-4.66-9.95-8.35-14.09c-1.03-1.16-2.15-2.27-3.32-3.32c-4.13-3.7-8.86-6.51-14.08-8.35c-2.74-0.96-5.58-1.64-8.45-2.02
			c-1.85-0.25-3.74-0.38-5.63-0.38c-1.88,0-3.78,0.13-5.63,0.38c-2.86,0.38-5.7,1.06-8.45,2.02c-5.21,1.85-9.94,4.66-14.08,8.36
			c-1.16,1.03-2.28,2.15-3.32,3.32c-3.7,4.13-6.51,8.86-8.35,14.07c-0.92,2.62-1.59,5.32-1.97,8.05h-13.1
			c0.28-2.61,0.76-5.22,1.42-7.77c1.24-4.84,3.14-9.49,5.65-13.81c1.83-3.17,3.99-6.17,6.42-8.92c1.52-1.72,3.16-3.37,4.89-4.89
			l0.92-0.82h-13.19c-3.62,0-6.56-2.95-6.56-6.57c0-3.62,2.94-6.56,6.56-6.57h97.38c3.6,0.02,6.53,2.97,6.53,6.57
			c0,3.61-2.93,6.56-6.53,6.57h-12.98l0.92,0.82c1.72,1.52,3.38,3.16,4.9,4.89c2.43,2.75,4.58,5.75,6.42,8.92
			C751.2,576.78,753.1,581.43,754.34,586.27z"/>
		<path class="st0" d="M754.34,586.27c0.66,2.55,1.13,5.16,1.41,7.77h-13.09c-0.39-2.73-1.05-5.42-1.98-8.04
			c-1.84-5.21-4.66-9.95-8.35-14.09c-1.03-1.16-2.15-2.27-3.32-3.32c-4.13-3.7-8.86-6.51-14.08-8.35c-2.74-0.96-5.58-1.64-8.45-2.02
			c-1.85-0.25-3.74-0.38-5.63-0.38c-1.88,0-3.78,0.13-5.63,0.38c-2.86,0.38-5.7,1.06-8.45,2.02c-5.21,1.85-9.94,4.66-14.08,8.36
			c-1.16,1.03-2.28,2.15-3.32,3.32c-3.7,4.13-6.51,8.86-8.35,14.07c-0.92,2.62-1.59,5.32-1.97,8.05h-13.1
			c0.28-2.61,0.76-5.22,1.42-7.77c1.24-4.84,3.14-9.49,5.65-13.81c1.83-3.17,3.99-6.17,6.42-8.92c1.52-1.72,3.16-3.37,4.89-4.89
			l0.92-0.82h-13.19c-3.62,0-6.56-2.95-6.56-6.57c0-3.62,2.94-6.56,6.56-6.57h97.38c3.6,0.02,6.53,2.97,6.53,6.57
			c0,3.61-2.93,6.56-6.53,6.57h-12.98l0.92,0.82c1.72,1.52,3.38,3.16,4.9,4.89c2.43,2.75,4.58,5.75,6.42,8.92
			C751.2,576.78,753.1,581.43,754.34,586.27z"/>
		<path class="st1" d="M727.57,594.04h-13.65c-1.48-3.21-4.06-5.74-7.31-7.15c-1.83-0.8-3.76-1.21-5.76-1.21
			c-1.99,0-3.93,0.41-5.75,1.21c-3.25,1.41-5.83,3.94-7.31,7.15h-13.66c0.6-2.68,1.61-5.26,3-7.66c2.4-4.15,5.87-7.62,10.02-10.02
			c2.56-1.48,5.32-2.53,8.22-3.12c1.79-0.36,3.63-0.55,5.47-0.55c1.85,0,3.69,0.19,5.48,0.55c2.88,0.58,5.65,1.63,8.21,3.12
			c4.16,2.4,7.63,5.87,10.03,10.02C725.97,588.78,726.97,591.36,727.57,594.04z"/>
		<path class="st1" d="M727.57,594.04h-13.65c-1.48-3.21-4.06-5.74-7.31-7.15c-1.83-0.8-3.76-1.21-5.76-1.21
			c-1.99,0-3.93,0.41-5.75,1.21c-3.25,1.41-5.83,3.94-7.31,7.15h-13.66c0.6-2.68,1.61-5.26,3-7.66c2.4-4.15,5.87-7.62,10.02-10.02
			c2.56-1.48,5.32-2.53,8.22-3.12c1.79-0.36,3.63-0.55,5.47-0.55c1.85,0,3.69,0.19,5.48,0.55c2.88,0.58,5.65,1.63,8.21,3.12
			c4.16,2.4,7.63,5.87,10.03,10.02C725.97,588.78,726.97,591.36,727.57,594.04z"/>
		<path class="st1" d="M700.86,627.45c-1.84,0-3.69-0.18-5.48-0.55c-2.89-0.58-5.65-1.63-8.21-3.12c-4.16-2.4-7.62-5.87-10.03-10.03
			c-1.39-2.4-2.39-4.97-3-7.66h13.65c1.48,3.21,4.06,5.74,7.31,7.15c1.82,0.8,3.76,1.2,5.75,1.2c1.99,0,3.93-0.4,5.75-1.2
			c3.24-1.42,5.83-3.95,7.31-7.15h13.65c-0.6,2.68-1.61,5.26-3,7.66c-2.4,4.16-5.87,7.62-10.03,10.03
			c-2.56,1.48-5.33,2.53-8.21,3.12C704.54,627.27,702.7,627.45,700.86,627.45z"/>
		<path class="st0" d="M700.86,655.29c-1.85,0-3.71-0.09-5.52-0.27c-2.78-0.28-5.57-0.77-8.28-1.47c-4.84-1.24-9.48-3.14-13.81-5.65
			c-3.17-1.83-6.17-3.99-8.92-6.42c-1.73-1.52-3.37-3.17-4.89-4.89c-2.43-2.75-4.59-5.75-6.42-8.92c-2.5-4.32-4.4-8.96-5.65-13.81
			c-0.66-2.55-1.13-5.16-1.42-7.77h13.1c0.39,2.72,1.05,5.43,1.97,8.04c1.84,5.21,4.65,9.95,8.36,14.08
			c1.04,1.16,2.15,2.28,3.32,3.32c4.13,3.7,8.87,6.51,14.08,8.35c2.74,0.97,5.59,1.65,8.45,2.03c1.84,0.25,3.74,0.37,5.63,0.37
			c1.89,0,3.79-0.13,5.63-0.37c2.86-0.38,5.7-1.06,8.45-2.03c5.21-1.84,9.94-4.65,14.08-8.36c1.17-1.04,2.28-2.16,3.32-3.32
			c3.7-4.13,6.51-8.87,8.35-14.08c0.92-2.62,1.58-5.32,1.97-8.04h13.1c-0.28,2.61-0.76,5.22-1.42,7.77
			c-1.24,4.84-3.14,9.49-5.65,13.8c-1.83,3.17-3.99,6.17-6.42,8.92c-1.52,1.72-3.16,3.37-4.89,4.89c-2.75,2.43-5.75,4.59-8.92,6.42
			c-4.32,2.5-8.97,4.4-13.81,5.65c-2.71,0.7-5.5,1.19-8.28,1.47C704.57,655.2,702.71,655.29,700.86,655.29z"/>
	</g>
	<path class="st1" d="M1099.33,610.84l9,19.83c0.84,1.84-0.51,3.93-2.53,3.93h-18.01c-2.02,0-3.37-2.09-2.53-3.93l9-19.83
		C1095.25,608.66,1098.34,608.66,1099.33,610.84z"/>
</g>
</svg>
