<?xml version="1.0" encoding="UTF-8"?> <svg xmlns="http://www.w3.org/2000/svg" width="50" height="50" viewBox="0 0 50 50" fill="none"><path d="M37.8235 46.2862C37.4887 46.2862 37.1611 46.1197 36.9687 45.8156C36.6708 45.3441 36.8117 44.7202 37.2833 44.4222C37.5006 44.2851 37.7195 44.1413 37.9337 43.995C38.1463 43.8502 38.3598 43.6992 38.5686 43.5462C38.7789 43.392 38.9868 43.2343 39.1858 43.0777C39.3879 42.9188 39.5894 42.7547 39.7854 42.5896C39.9817 42.4241 40.1777 42.2535 40.3673 42.0824C40.5586 41.9099 40.7482 41.733 40.9309 41.5569C41.1146 41.3798 41.2978 41.1969 41.4755 41.0136C41.6513 40.8326 41.8281 40.6442 42.0014 40.4532C42.3759 40.0399 43.0148 40.0092 43.4278 40.3838C43.841 40.7585 43.872 41.3971 43.4973 41.8102C43.3086 42.018 43.1162 42.2232 42.925 42.4202C42.7322 42.6189 42.5329 42.8177 42.333 43.0106C42.134 43.2024 41.928 43.3946 41.7201 43.5822C41.5132 43.7686 41.3002 43.9544 41.0868 44.1342C40.8737 44.3138 40.6539 44.4928 40.434 44.6655C40.2178 44.8356 39.992 45.0071 39.7629 45.175C39.5351 45.3421 39.3026 45.5063 39.0716 45.6638C38.838 45.8231 38.5992 45.98 38.3619 46.1299C38.1946 46.2357 38.0079 46.2862 37.8235 46.2862Z" fill="#004B87"></path><path d="M6.41103 41.1731C6.11865 41.1731 5.8288 41.0469 5.6291 40.8031C5.52148 40.6715 5.41542 40.5387 5.31044 40.4049C5.20517 40.2704 5.10185 40.1356 4.9997 39.9998C4.89697 39.8628 4.79609 39.7254 4.69667 39.5871C4.59726 39.4487 4.49931 39.3092 4.40243 39.1686C4.30527 39.0271 4.20986 38.8855 4.11601 38.7428C4.02177 38.5994 3.9291 38.4554 3.83779 38.3101C3.74677 38.1653 3.65712 38.0193 3.56874 37.8724C3.47988 37.7242 3.39296 37.576 3.30751 37.4268C3.03036 36.9428 3.19804 36.3256 3.68202 36.0485C4.16601 35.7714 4.783 35.9389 5.06025 36.4231C5.13896 36.5605 5.21894 36.697 5.30029 36.8325C5.38124 36.9673 5.46396 37.1019 5.54804 37.2357C5.63183 37.3691 5.71689 37.5014 5.80332 37.6327C5.88964 37.7639 5.97754 37.8944 6.0666 38.024C6.15508 38.1525 6.24521 38.281 6.33681 38.4083C6.42842 38.5357 6.52109 38.6619 6.61494 38.7871C6.70849 38.9115 6.80361 39.0359 6.9001 39.159C6.9957 39.2809 7.09307 39.403 7.1918 39.5234C7.54522 39.955 7.48184 40.5912 7.05029 40.9446C6.8626 41.0983 6.63603 41.1731 6.41103 41.1731Z" fill="#004B87"></path><path d="M9.34061 44.1786C9.10721 44.1786 8.87274 44.0984 8.68202 43.9341C8.54422 43.8154 8.4076 43.6951 8.27225 43.5736C8.13758 43.4525 8.0032 43.3291 7.8702 43.2043C7.73709 43.0792 7.60575 42.9532 7.47567 42.8256C7.34569 42.698 7.21688 42.5691 7.08953 42.4386C6.9615 42.3072 6.83553 42.1754 6.71102 42.0419C6.58699 41.9095 6.46365 41.7743 6.34178 41.6381C6.21902 41.5006 6.09861 41.3629 5.97967 41.2238C5.86053 41.0843 5.74285 40.9436 5.62674 40.8012C5.2742 40.369 5.33885 39.7328 5.77107 39.3804C6.2034 39.0279 6.83944 39.0924 7.19198 39.5247C7.29832 39.6551 7.40613 39.784 7.51541 39.9118C7.62479 40.0401 7.73553 40.1665 7.84754 40.2921C7.95858 40.4161 8.07195 40.5404 8.1867 40.6631C8.30203 40.7866 8.41815 40.908 8.53543 41.0283C8.65194 41.1477 8.77059 41.2664 8.89032 41.384C9.01004 41.5015 9.13104 41.6174 9.2533 41.7323C9.37489 41.8464 9.49793 41.9596 9.62225 42.071C9.74754 42.1838 9.87323 42.2945 10.0001 42.4035C10.4227 42.7676 10.4703 43.4052 10.1063 43.8279C9.90653 44.0597 9.6244 44.1786 9.34061 44.1786Z" fill="#004B87"></path><path d="M33.0277 48.6145C32.6117 48.6145 32.2222 48.3555 32.0757 47.941C31.8896 47.4151 32.1652 46.8382 32.6912 46.6523C32.8924 46.5811 33.097 46.5053 33.2992 46.4273C33.4972 46.351 33.6986 46.2701 33.8989 46.1863C34.0986 46.1026 34.2971 46.0162 34.4882 45.9297C34.6861 45.8402 34.8811 45.7487 35.0679 45.6579C35.2597 45.5645 35.4516 45.4678 35.6382 45.3707C35.8263 45.2725 36.0146 45.1708 36.1967 45.0694C36.3833 44.9653 36.568 44.859 36.7457 44.7531C36.9309 44.6431 37.1118 44.5321 37.2837 44.4232C37.7552 44.1246 38.379 44.2643 38.6774 44.7354C38.9761 45.2065 38.8362 45.8305 38.3651 46.129C38.1768 46.2484 37.9793 46.3696 37.7778 46.4892C37.5847 46.6042 37.3836 46.7199 37.1807 46.8331C36.9821 46.9439 36.7772 47.0544 36.5719 47.1616C36.3685 47.2675 36.1601 47.3724 35.9517 47.4739C35.7478 47.5732 35.5355 47.6726 35.3208 47.7699C35.1125 47.8641 34.8965 47.958 34.6791 48.0491C34.4609 48.1405 34.2415 48.2286 34.0262 48.3116C33.8067 48.3962 33.5841 48.4787 33.3646 48.5563C33.2531 48.5958 33.1394 48.6145 33.0277 48.6145Z" fill="#004B87"></path><path d="M12.4987 46.4793C12.3196 46.4793 12.138 46.4316 11.9738 46.3315C11.8287 46.243 11.6847 46.153 11.5414 46.0613C11.3982 45.9696 11.256 45.8767 11.1151 45.7824C10.9743 45.6885 10.8342 45.5928 10.695 45.4955C10.5551 45.398 10.4166 45.2994 10.2792 45.1991C10.1432 45.0999 10.007 44.9986 9.87172 44.8959C9.73578 44.7925 9.6016 44.6884 9.46869 44.5829C9.33588 44.4776 9.20355 44.3706 9.0723 44.2621C8.94222 44.1549 8.81244 44.0451 8.68373 43.9346C8.26068 43.571 8.21253 42.9334 8.57601 42.5104C8.93949 42.0874 9.57709 42.0392 10.0002 42.4026C10.1188 42.5046 10.2384 42.6056 10.359 42.7051C10.4802 42.8054 10.6015 42.9033 10.7237 43.0002C10.8465 43.0977 10.9701 43.1934 11.0944 43.288C11.2179 43.3818 11.343 43.475 11.4692 43.5667C11.5964 43.6597 11.7232 43.7499 11.8508 43.839C11.9786 43.928 12.1074 44.0161 12.2373 44.103C12.3674 44.19 12.4982 44.2755 12.6297 44.3596C12.7608 44.4433 12.8926 44.5259 13.0257 44.6069C13.5019 44.8975 13.6525 45.5188 13.3621 45.9951C13.1716 46.3071 12.8392 46.4793 12.4987 46.4793Z" fill="#004B87"></path><path d="M28.4083 49.7512C27.9137 49.7512 27.4818 49.3877 27.4097 48.884C27.3307 48.3318 27.7144 47.8201 28.2665 47.7413C28.3286 47.7325 28.3905 47.7231 28.4523 47.7138C28.5182 47.7037 28.5803 47.6942 28.6424 47.6842C28.7053 47.674 28.7686 47.6635 28.832 47.6528C28.8978 47.642 28.9599 47.631 29.0217 47.6203C29.0844 47.6094 29.1449 47.5981 29.2052 47.5871C29.2755 47.5741 29.3386 47.5621 29.4018 47.55L29.5884 47.5129C29.6496 47.5004 29.7125 47.4873 29.7752 47.4739C29.9015 47.4471 30.0262 47.4195 30.1505 47.391C30.2744 47.3625 30.3986 47.3327 30.5224 47.3021C30.6462 47.2717 30.7687 47.2401 30.8907 47.2079C31.013 47.1756 31.1343 47.1424 31.2551 47.1082C31.3782 47.0734 31.499 47.0383 31.6195 47.002C31.7397 46.966 31.8593 46.9289 31.9788 46.8909C32.099 46.8526 32.2181 46.8139 32.337 46.7741C32.4544 46.7347 32.5724 46.6939 32.69 46.6523C33.216 46.4664 33.7929 46.7415 33.9791 47.2671C34.1652 47.7929 33.89 48.3701 33.3643 48.5562C33.2369 48.6014 33.1087 48.6455 32.9799 48.6889C32.8498 48.7323 32.7209 48.7744 32.5912 48.8157C32.4615 48.857 32.331 48.8973 32.1999 48.9367C32.0686 48.9759 31.9373 49.0143 31.8051 49.0516C31.6742 49.0888 31.5408 49.1251 31.4072 49.1604C31.2743 49.1956 31.1402 49.2302 31.0058 49.2633C30.8732 49.2961 30.7388 49.328 30.6042 49.3592C30.468 49.3904 30.3323 49.4205 30.1963 49.4493C30.1289 49.4637 30.06 49.478 29.9912 49.4921L29.7882 49.5323C29.713 49.5468 29.645 49.5599 29.5767 49.5723C29.5038 49.5857 29.4372 49.598 29.3707 49.6097C29.3034 49.6215 29.234 49.6336 29.1645 49.645C29.1003 49.6559 29.0322 49.6671 28.9643 49.678C28.8948 49.6893 28.8255 49.7 28.7562 49.7103C28.6906 49.7205 28.6213 49.7309 28.552 49.7408C28.5041 49.7478 28.4557 49.7512 28.4083 49.7512Z" fill="#004B87"></path><path d="M16.0185 48.2535C15.8922 48.2535 15.7639 48.2297 15.6397 48.1793C15.4808 48.1149 15.3226 48.049 15.1652 47.9815C15.0067 47.9136 14.8497 47.8442 14.6935 47.7733C14.5373 47.7024 14.3823 47.6301 14.2278 47.5563C14.0731 47.4821 13.9195 47.4067 13.7665 47.3297C13.6129 47.2522 13.4609 47.1735 13.3095 47.0934C13.1588 47.0135 13.0084 46.9316 12.8587 46.8483C12.7089 46.7649 12.5603 46.6803 12.4122 46.594C12.2643 46.5076 12.1172 46.42 11.971 46.3306C11.4953 46.0394 11.3458 45.4175 11.6369 44.9418C11.9281 44.4661 12.5496 44.3164 13.0256 44.6078C13.1598 44.6898 13.2948 44.7703 13.4306 44.8497C13.5664 44.9291 13.703 45.0068 13.8405 45.0834C13.9781 45.1599 14.1163 45.2351 14.2555 45.3089C14.3953 45.3829 14.5351 45.4554 14.6758 45.5262C14.816 45.597 14.9575 45.6664 15.0997 45.7345C15.2418 45.8025 15.3848 45.8692 15.5286 45.9346C15.6719 45.9997 15.8163 46.0633 15.9612 46.1255C16.1056 46.1874 16.2514 46.2482 16.398 46.3076C16.915 46.517 17.1642 47.1059 16.9548 47.6228C16.7957 48.0153 16.4176 48.2535 16.0185 48.2535Z" fill="#004B87"></path><path d="M24.9758 50.0001C24.8281 50.0001 24.6812 49.9987 24.5347 49.9962C24.345 49.9929 24.1557 49.9874 23.9668 49.9797C23.4094 49.957 22.9761 49.4866 22.9989 48.9294C23.0217 48.372 23.4913 47.9378 24.0491 47.9615C24.2225 47.9685 24.3963 47.9735 24.5702 47.9765C24.7445 47.9798 24.9189 47.9811 25.0935 47.9799C25.2672 47.9788 25.4425 47.9759 25.6181 47.9708C25.7931 47.9656 25.9683 47.9589 26.1442 47.9496C26.321 47.9406 26.4968 47.9296 26.6728 47.9163C26.8494 47.9031 27.0259 47.8878 27.2029 47.8704C27.3795 47.8532 27.556 47.8339 27.7328 47.8124C27.9103 47.7907 28.0879 47.7671 28.2654 47.7416C28.8184 47.6624 29.3295 48.0452 29.4089 48.5972C29.4883 49.1493 29.1052 49.6613 28.5531 49.7407C28.3607 49.7684 28.1685 49.7941 27.9765 49.8174C27.7838 49.8407 27.5916 49.8618 27.3992 49.8805C27.2071 49.8992 27.0155 49.9159 26.824 49.9304C26.6319 49.9447 26.44 49.9568 26.2484 49.9666C26.0584 49.9766 25.8673 49.9842 25.6765 49.9896C25.4859 49.9951 25.2959 49.9981 25.1057 49.9995C25.0624 50 25.019 50.0001 24.9758 50.0001Z" fill="#004B87"></path><path d="M24.0084 49.98C23.9944 49.98 23.9804 49.9797 23.9666 49.9792C23.7834 49.9717 23.6003 49.9622 23.4176 49.9507C23.2348 49.9393 23.0522 49.9259 22.8702 49.9103C22.6886 49.8949 22.5075 49.8774 22.3267 49.8583C22.1443 49.8385 21.9637 49.8171 21.7836 49.7939C21.6028 49.7701 21.4237 49.7451 21.2452 49.7181C21.0647 49.6905 20.8862 49.6613 20.7082 49.6302C20.5305 49.5995 20.3527 49.5663 20.1753 49.5313C19.9973 49.4962 19.8205 49.4595 19.6443 49.4206C19.0997 49.3005 18.7554 48.7617 18.8754 48.217C18.9956 47.6723 19.5347 47.3282 20.0791 47.4482C20.2407 47.4837 20.4028 47.5175 20.5655 47.5497C20.7275 47.5814 20.8907 47.6119 21.0543 47.6404C21.2192 47.6691 21.3835 47.696 21.5485 47.7212C21.7125 47.746 21.8784 47.7693 22.0448 47.7912C22.2091 47.8125 22.3752 47.8321 22.5417 47.8499C22.707 47.8676 22.8743 47.8838 23.0418 47.8981C23.2088 47.9123 23.3762 47.9246 23.5437 47.935C23.7116 47.9455 23.8801 47.9543 24.0485 47.9612C24.6057 47.9838 25.0392 48.454 25.0165 49.0114C24.9946 49.5543 24.5472 49.98 24.0084 49.98Z" fill="#004B87"></path><path d="M19.8646 49.4443C19.7927 49.4443 19.7199 49.4366 19.6467 49.4206C19.4754 49.3828 19.3044 49.3434 19.1341 49.3023C18.9624 49.2606 18.7923 49.2175 18.623 49.1726C18.4536 49.1279 18.2846 49.081 18.1165 49.0328C17.948 48.9845 17.7801 48.9345 17.6129 48.8825C17.4461 48.8306 17.2799 48.7773 17.1145 48.7221C16.9488 48.6668 16.7838 48.6101 16.6197 48.5515C16.4551 48.4929 16.2914 48.4324 16.1283 48.3704C15.9656 48.3084 15.8038 48.2449 15.6425 48.1796C15.1254 47.9707 14.8755 47.382 15.0846 46.8648C15.2937 46.3478 15.8824 46.098 16.3993 46.307C16.5479 46.3671 16.6972 46.4257 16.8472 46.483C16.9968 46.5399 17.1471 46.5952 17.2979 46.6491C17.4491 46.703 17.601 46.7552 17.7534 46.806C17.9057 46.8568 18.0588 46.9059 18.2126 46.9539C18.3656 47.0012 18.5195 47.047 18.6739 47.0914C18.8287 47.1359 18.9839 47.1789 19.1397 47.2201C19.2956 47.2612 19.452 47.3009 19.6089 47.339C19.7647 47.3765 19.9223 47.413 20.0806 47.4477C20.6254 47.5676 20.9699 48.1063 20.8501 48.6509C20.7463 49.1227 20.3284 49.4443 19.8646 49.4443Z" fill="#004B87"></path><path d="M44.1555 26.9678C43.6017 26.9679 43.1505 26.5214 43.1458 25.9666C43.1426 25.5915 43.136 25.235 43.1264 24.9073C43.1188 24.6559 43.1118 24.5033 43.1096 24.4613C43.0506 23.2508 42.869 22.0458 42.5697 20.8804C42.2785 19.7456 41.8724 18.6344 41.3625 17.5775C40.862 16.5402 40.2568 15.545 39.5629 14.6191C38.8755 13.702 38.0959 12.8461 37.2462 12.075C36.396 11.3036 35.4688 10.6105 34.4896 10.0151C33.5019 9.41441 32.4523 8.90777 31.3704 8.50943C30.2693 8.10396 29.1235 7.80679 27.9652 7.62632C26.7755 7.44097 25.5576 7.37633 24.3463 7.43414C24.2263 7.44 24.1058 7.44693 23.9854 7.45523C23.8646 7.46343 23.7442 7.47291 23.6236 7.48355C23.5044 7.4941 23.3841 7.50601 23.2639 7.51929C23.1423 7.53238 23.0224 7.54673 22.9025 7.56226C22.7828 7.57779 22.6627 7.59449 22.5431 7.61246C22.4234 7.63043 22.3042 7.64947 22.185 7.66978C22.0659 7.69009 21.9469 7.71167 21.8284 7.73433C21.7105 7.75689 21.5925 7.78082 21.4749 7.80582C20.4162 8.03082 19.3762 8.35054 18.3835 8.75591C17.4115 9.15269 16.4697 9.63785 15.5841 10.1981C15.1125 10.4963 14.4888 10.3557 14.1907 9.88443C13.8926 9.41305 14.033 8.78922 14.5044 8.49107C15.4902 7.86754 16.5384 7.3274 17.6198 6.88589C18.7233 6.43521 19.879 6.08003 21.0547 5.83013C21.1853 5.8023 21.3171 5.77564 21.4491 5.75035C21.5812 5.72515 21.7132 5.70122 21.8454 5.67866C21.978 5.65611 22.1107 5.63482 22.2436 5.61489C22.3764 5.59497 22.5097 5.57642 22.6429 5.55913C22.777 5.54185 22.9107 5.52593 23.0446 5.51138C23.1769 5.49683 23.311 5.48365 23.4451 5.47163C23.58 5.45972 23.7137 5.44927 23.8478 5.44009C23.9817 5.43101 24.1159 5.4231 24.2497 5.41665C25.5975 5.3522 26.9521 5.42427 28.2763 5.63052C29.5663 5.83159 30.842 6.16245 32.0684 6.61392C33.2723 7.05728 34.4401 7.62105 35.5389 8.28931C36.6275 8.95123 37.6586 9.72164 38.6034 10.5792C39.548 11.4362 40.4147 12.3879 41.179 13.4077C41.9509 14.4377 42.6245 15.5453 43.1816 16.6997C43.7493 17.8767 44.2018 19.1143 44.5261 20.3781C44.8592 21.6752 45.0614 23.0161 45.1272 24.3635C45.1293 24.4099 45.137 24.5751 45.1453 24.8473C45.1554 25.1891 45.1622 25.5596 45.1657 25.949C45.1703 26.5067 44.7221 26.9629 44.1644 26.9677C44.1614 26.9678 44.1584 26.9678 44.1555 26.9678Z" fill="#004B87"></path><path d="M42.7509 42.1414C42.5966 42.1414 42.4409 42.1061 42.2963 42.0332C41.8907 41.8284 41.6717 41.3782 41.761 40.9327C41.9652 39.9161 42.1498 38.8611 42.3099 37.797C42.457 36.8204 42.5867 35.8174 42.6952 34.8154C42.7935 33.909 42.8771 32.9835 42.9439 32.0646C42.9844 31.5085 43.4691 31.0901 44.0242 31.1306C44.5807 31.1711 44.9988 31.6548 44.9584 32.211C44.8898 33.1535 44.804 34.1031 44.7032 35.0332C44.6224 35.7792 44.5302 36.526 44.4281 37.2628C44.6653 36.887 44.8916 36.5048 45.1057 36.1181C45.5364 35.3403 45.9257 34.5298 46.2628 33.7092C46.6017 32.8842 46.8953 32.0305 47.1358 31.172C47.3777 30.3078 47.5705 29.4192 47.7091 28.5311C47.8486 27.6342 47.9354 26.7188 47.967 25.8106C47.9988 24.8895 47.9741 23.9552 47.894 23.0336C47.8122 22.0957 47.6707 21.1501 47.4736 20.2234C47.1497 18.6984 46.6721 17.2068 46.0542 15.7901C45.4528 14.4109 44.7106 13.0857 43.8487 11.8512C43.0025 10.6393 42.0323 9.50325 40.9658 8.47463C39.9086 7.45539 38.7472 6.53234 37.5137 5.73127C36.2806 4.93049 34.9649 4.24494 33.6035 3.69367C32.2297 3.13742 30.7971 2.7133 29.3461 2.43322C27.8682 2.14786 26.3532 2.0087 24.8507 2.02042C23.3059 2.03214 21.7491 2.20246 20.2235 2.52677C18.6979 2.85099 17.2064 3.32863 15.7904 3.9463C14.4108 4.54806 13.0856 5.29006 11.8514 6.15178C10.6397 6.99797 9.50365 7.96799 8.47494 9.03489C7.4556 10.0919 6.53265 11.2533 5.73158 12.4868C4.9305 13.7202 4.24495 15.0359 3.69378 16.397C3.13753 17.771 2.7134 19.2034 2.43333 20.6543C2.14807 22.1323 2.0092 23.6448 2.02053 25.1498C2.03235 26.6942 2.20266 28.2512 2.52698 29.7771C2.59065 30.0763 2.66057 30.3764 2.73479 30.6687C2.8093 30.9618 2.89036 31.2565 2.97542 31.5439C3.06067 31.8313 3.15237 32.1201 3.24798 32.402C3.34319 32.6826 3.44534 32.9656 3.55149 33.2431C3.65774 33.5202 3.77005 33.797 3.88509 34.0654C4.00042 34.3344 4.12259 34.605 4.24847 34.8704C4.25989 34.8944 4.27142 34.9186 4.28304 34.9427C4.28499 34.9357 4.28684 34.9288 4.2888 34.9217C4.31731 34.8182 4.34593 34.7103 4.37464 34.5984C4.40423 34.4835 4.43333 34.3664 4.46253 34.2447C4.56829 33.8033 4.66575 33.3343 4.75208 32.8511C4.83167 32.4044 4.90354 31.9375 4.96556 31.4631C5.0221 31.0306 5.07181 30.5831 5.11331 30.1332C5.15013 29.7368 5.18157 29.3262 5.20696 28.9125C5.22884 28.556 5.24593 28.1994 5.25804 27.8528C5.2682 27.5621 5.27503 27.2763 5.27855 27.0034C5.28167 26.7621 5.28196 26.5633 5.28089 26.4153C5.28021 26.2808 5.27855 26.1894 5.27767 26.1461C5.22864 24.9503 5.28587 23.747 5.44808 22.5692C5.60775 21.4113 5.87074 20.2623 6.22953 19.1542C6.58343 18.0616 7.03597 16.9923 7.57435 15.9764C8.10863 14.9685 8.73431 14.0002 9.43412 13.0986C9.77631 12.658 10.4107 12.5782 10.8511 12.92C11.2917 13.2619 11.3717 13.8964 11.0297 14.337C10.401 15.147 9.83891 16.0168 9.35902 16.9223C8.87543 17.8349 8.46898 18.7953 8.15101 19.7767C7.82855 20.772 7.59242 21.8043 7.44886 22.8448C7.30267 23.9071 7.2513 24.9932 7.29613 26.0726C7.29632 26.0793 7.29661 26.0862 7.29671 26.0928C7.29769 26.1354 7.29974 26.2416 7.30072 26.403C7.30169 26.56 7.3014 26.772 7.29818 27.0293C7.29447 27.3169 7.28724 27.6176 7.2765 27.923C7.2638 28.2873 7.24574 28.6617 7.22279 29.0359C7.19622 29.4709 7.16312 29.9026 7.12435 30.3194C7.0805 30.7941 7.02796 31.2672 6.9681 31.725C6.90208 32.23 6.82542 32.7284 6.74027 33.206C6.6471 33.728 6.54144 34.2359 6.4264 34.7161C6.39437 34.8495 6.36253 34.9773 6.33079 35.1007C6.29954 35.2229 6.26771 35.3426 6.23607 35.4577C6.20443 35.5727 6.17308 35.6832 6.14203 35.7893C6.11078 35.8959 6.07992 35.9978 6.04945 36.0956C6.01888 36.1934 5.9887 36.2872 5.95921 36.3766C5.92884 36.4682 5.89935 36.5542 5.87054 36.636C5.84134 36.7193 5.81263 36.7985 5.7846 36.8736C5.75726 36.947 5.72982 37.0185 5.70316 37.086C5.59407 37.3622 5.36898 37.5763 5.08772 37.6715L4.53978 37.8697C4.07571 38.0441 3.55364 37.8567 3.30725 37.4265C3.15061 37.1532 2.9969 36.8723 2.85032 36.592C2.70335 36.3105 2.55989 36.0231 2.42395 35.7369C2.28684 35.4479 2.15374 35.1533 2.02854 34.8609C1.90344 34.569 1.78118 34.2678 1.66536 33.9658C1.54973 33.6635 1.4387 33.356 1.33518 33.0509C1.23118 32.744 1.13147 32.4302 1.0387 32.1175C0.946117 31.8047 0.858128 31.4848 0.777074 31.1662C0.696312 30.848 0.620432 30.5222 0.551194 30.1972C0.198654 28.5382 0.0134985 26.8453 0.000705499 25.165C-0.0116969 23.5267 0.139475 21.8802 0.450022 20.2715C0.754906 18.6925 1.21633 17.1339 1.82161 15.6389C2.42093 14.1586 3.16643 12.728 4.03743 11.3867C4.90862 10.0454 5.91224 8.78254 7.02074 7.63293C8.13998 6.47219 9.37611 5.41662 10.6949 4.49582C12.0383 3.55773 13.481 2.75001 14.9827 2.09503C16.523 1.42306 18.145 0.903624 19.8034 0.551182C21.4617 0.19874 23.1547 0.0134856 24.8352 0.000790246C26.4737 -0.0123934 28.12 0.139462 29.7287 0.450107C31.3077 0.754893 32.8665 1.21632 34.3613 1.82159C35.8419 2.42111 37.2724 3.16662 38.6135 4.03742C39.9547 4.90851 41.2176 5.91222 42.3673 7.02072C43.5278 8.13977 44.5833 9.376 45.5045 10.695C46.4429 12.0389 47.2506 13.4815 47.9053 14.9827C48.5773 16.524 49.0966 18.1459 49.4489 19.8036C49.6632 20.8107 49.8169 21.8384 49.9059 22.8583C49.9932 23.8613 50.02 24.8781 49.9853 25.8806C49.9509 26.8693 49.8565 27.8658 49.7044 28.8422C49.5537 29.8089 49.3438 30.776 49.0803 31.7168C48.8187 32.6506 48.4994 33.5793 48.1308 34.477C47.7639 35.3696 47.3405 36.2509 46.8724 37.0968C46.4054 37.9404 45.8839 38.7657 45.3228 39.5498C44.7618 40.3339 44.1481 41.0943 43.4989 41.8101C43.3029 42.0264 43.0292 42.1414 42.7509 42.1414Z" fill="#004B87"></path><path d="M6.41034 41.1731C6.11268 41.1731 5.82401 41.0412 5.62889 40.8032C5.52127 40.6715 5.41522 40.5387 5.31024 40.4049C5.20496 40.2704 5.10164 40.1356 4.99949 39.9998C4.89676 39.8628 4.79588 39.7254 4.69647 39.5871C4.59705 39.4488 4.4991 39.3092 4.40223 39.1686C4.30506 39.0271 4.20965 38.8855 4.1158 38.7428C4.02156 38.5994 3.92889 38.4554 3.83758 38.3101C3.74656 38.1653 3.65691 38.0193 3.56854 37.8724C3.47967 37.7243 3.39275 37.576 3.3073 37.4268C3.16033 37.17 3.13328 36.8617 3.23338 36.5831C3.33348 36.3047 3.55076 36.0842 3.82752 35.9797L3.98065 35.9224C4.00086 35.8646 4.02127 35.8047 4.04188 35.7423C4.06766 35.6642 4.09441 35.5813 4.12147 35.4943C4.14871 35.4068 4.17625 35.3158 4.20418 35.2207C4.23221 35.1251 4.26043 35.0255 4.28885 34.9219C4.31736 34.8184 4.34598 34.7105 4.37469 34.5986C4.40428 34.4836 4.43338 34.3665 4.46258 34.2449C4.56834 33.8034 4.6658 33.3345 4.75213 32.8513C4.83172 32.4045 4.9036 31.9376 4.96561 31.4632C5.02215 31.0308 5.07186 30.5832 5.11336 30.1333C5.15018 29.7369 5.18162 29.3264 5.20701 28.9126C5.22889 28.5562 5.24598 28.1995 5.25809 27.8529C5.26825 27.5622 5.27508 27.2765 5.2786 27.0035C5.28172 26.7622 5.28202 26.5635 5.28094 26.4154C5.28026 26.2809 5.2786 26.1893 5.27772 26.146C5.22869 24.9504 5.28592 23.7471 5.44813 22.5693C5.60779 21.4114 5.87079 20.2625 6.22957 19.1544C6.58348 18.0617 7.03602 16.9925 7.5744 15.9766C8.10868 14.9686 8.73436 14.0004 9.43417 13.0987C9.77616 12.6582 10.4104 12.578 10.8512 12.9201C11.2918 13.2621 11.3718 13.8966 11.0298 14.3372C10.4011 15.1472 9.83895 16.017 9.35907 16.9225C8.87548 17.8351 8.46903 18.7954 8.15106 19.7769C7.8286 20.7722 7.59247 21.8045 7.44901 22.8449C7.30272 23.9072 7.25135 24.9934 7.29618 26.0728C7.29637 26.0795 7.29667 26.0862 7.29677 26.093C7.29774 26.1356 7.29979 26.2417 7.30077 26.4031C7.30174 26.5602 7.30145 26.7722 7.29823 27.0294C7.29452 27.3171 7.28729 27.6178 7.27655 27.9232C7.26385 28.2874 7.24579 28.6618 7.22284 29.0361C7.19627 29.471 7.16317 29.9028 7.1244 30.3196C7.08055 30.7943 7.02801 31.2673 6.96815 31.7251C6.90213 32.2302 6.82548 32.7285 6.74032 33.2062C6.64715 33.7282 6.54149 34.2361 6.42645 34.7162C6.39442 34.8496 6.36258 34.9775 6.33084 35.1008C6.29959 35.223 6.26776 35.3427 6.23612 35.4577C6.20448 35.5728 6.17313 35.6832 6.14207 35.7894C6.11082 35.8959 6.07997 35.9979 6.0495 36.0956C6.01893 36.1935 5.98875 36.2872 5.95926 36.3767C5.92889 36.4683 5.8994 36.5542 5.87059 36.6361C5.84139 36.7194 5.81268 36.7986 5.78465 36.8737C5.75731 36.9471 5.72987 37.0186 5.70321 37.0861C5.67313 37.1621 5.63426 37.2337 5.58787 37.2992C5.65867 37.411 5.73035 37.522 5.80311 37.6326C5.88944 37.7638 5.97733 37.8944 6.06639 38.024C6.15487 38.1524 6.24501 38.2809 6.33661 38.4082C6.42821 38.5356 6.52088 38.6618 6.61473 38.787C6.6618 38.8497 6.70936 38.9123 6.75731 38.9748C6.77254 38.9494 6.78788 38.9234 6.8034 38.8963C6.86317 38.7924 6.9246 38.6773 6.98592 38.5542C7.05545 38.4146 7.12557 38.2636 7.19413 38.1053C7.2701 37.9302 7.34637 37.7412 7.42098 37.5436C7.50096 37.3316 7.58124 37.1028 7.65946 36.8641C7.74247 36.6102 7.8244 36.3401 7.90282 36.0615C7.98661 35.7641 8.06815 35.4503 8.1452 35.1289C8.26776 34.6178 8.38065 34.0757 8.48065 33.5175C8.57138 33.01 8.6536 32.4761 8.72509 31.9308C8.78856 31.4445 8.84481 30.9376 8.89188 30.4243C8.933 29.9738 8.96776 29.5125 8.99511 29.0532C9.01825 28.6628 9.03642 28.2654 9.04901 27.8724C9.05927 27.5534 9.06571 27.2387 9.06845 26.9366C9.07079 26.6722 9.06991 26.457 9.06806 26.2994C9.06649 26.1551 9.06425 26.0604 9.06317 26.0213C9.02157 25.0508 9.0663 24.0743 9.19608 23.1191C9.32391 22.18 9.53573 21.2475 9.82577 20.3477C10.1116 19.4606 10.4774 18.593 10.9132 17.7687C11.3453 16.9512 11.8518 16.1654 12.4189 15.4333C12.986 14.7013 13.6203 14.0144 14.3045 13.3914C14.9938 12.7637 15.7427 12.1926 16.5304 11.6938C17.3299 11.1879 18.1801 10.7497 19.0575 10.3913C19.9527 10.0256 20.8903 9.73739 21.8441 9.53465C21.9508 9.512 22.0574 9.49041 22.1642 9.4701C22.2699 9.44979 22.3774 9.43036 22.4848 9.41209C22.5919 9.39373 22.6994 9.37665 22.807 9.36053C22.9151 9.34432 23.0227 9.32938 23.1306 9.31532C23.2395 9.30116 23.348 9.28827 23.4566 9.27655C23.5646 9.26473 23.6732 9.25408 23.7817 9.24442C23.8902 9.23485 23.9988 9.22625 24.1073 9.21883C24.2155 9.21131 24.3244 9.20516 24.4329 9.19989C25.5263 9.14774 26.6236 9.20604 27.6953 9.37303C28.7412 9.53622 29.7748 9.80418 30.768 10.1698C31.2913 10.3625 31.5594 10.9431 31.3668 11.4664C31.174 11.9897 30.5939 12.2581 30.0702 12.0652C29.2021 11.7457 28.2985 11.5113 27.3845 11.3687C26.4468 11.2226 25.4866 11.1716 24.53 11.2173C24.436 11.2219 24.3408 11.2273 24.2457 11.2339C24.1501 11.2404 24.0547 11.2479 23.9596 11.2562C23.865 11.2646 23.77 11.274 23.675 11.2844C23.5797 11.2947 23.4851 11.306 23.3907 11.3183C23.2964 11.3305 23.2016 11.3437 23.1068 11.3579C23.0129 11.3721 22.9187 11.387 22.8246 11.403C22.7308 11.4191 22.6373 11.4359 22.5442 11.4539C22.4494 11.472 22.3564 11.4908 22.2634 11.5104C21.4275 11.6882 20.6057 11.9408 19.8214 12.2612C19.0536 12.5748 18.3099 12.9581 17.6107 13.4006C16.9221 13.8365 16.2673 14.336 15.6645 14.885C15.0663 15.4297 14.5116 16.0304 14.0157 16.6703C13.5199 17.3104 13.0769 17.9976 12.699 18.7125C12.3182 19.4332 11.9982 20.1918 11.7483 20.9673C11.4947 21.7543 11.3095 22.5698 11.1976 23.3912C11.0837 24.2303 11.0445 25.0886 11.0816 25.9422C11.0818 25.9474 11.082 25.9526 11.0822 25.9578C11.0833 25.9953 11.0861 26.1049 11.088 26.2772C11.0899 26.4444 11.0909 26.6735 11.0884 26.9545C11.0856 27.2719 11.0788 27.6027 11.0681 27.9372C11.0549 28.3486 11.0358 28.7644 11.0115 29.1729C10.983 29.6535 10.9467 30.1365 10.9035 30.6085C10.854 31.1477 10.795 31.6807 10.7281 32.1928C10.6526 32.7694 10.5654 33.3347 10.4691 33.8734C10.3622 34.4701 10.2413 35.051 10.1097 35.5998C10.0266 35.9467 9.93827 36.2864 9.84735 36.609C9.76132 36.9144 9.67118 37.2116 9.57929 37.4924C9.49179 37.7595 9.40155 38.0164 9.31112 38.2566C9.22499 38.4848 9.13632 38.7041 9.04755 38.9087C8.96473 39.0997 8.87938 39.2835 8.79393 39.455C8.71483 39.6137 8.63446 39.7644 8.55487 39.9028C8.48036 40.0325 8.40526 40.1534 8.33163 40.2627C8.26005 40.369 8.18944 40.4645 8.12196 40.5467C7.98251 40.7167 7.7913 40.8365 7.57753 40.8879L7.03543 41.031C6.9952 41.0423 6.96073 41.0525 6.92635 41.0626L6.71034 41.1276C6.61112 41.1583 6.51014 41.1731 6.41034 41.1731Z" fill="#004B87"></path><path d="M44.1555 26.9678C43.6017 26.9678 43.1505 26.5214 43.1458 25.9666C43.1426 25.5915 43.136 25.235 43.1264 24.9073C43.1188 24.6559 43.1118 24.5033 43.1096 24.4613C43.0506 23.2508 42.869 22.0458 42.5697 20.8804C42.2785 19.7456 41.8724 18.6344 41.3625 17.5775C40.862 16.5402 40.2568 15.545 39.5629 14.6191C38.8755 13.702 38.0959 12.8461 37.2462 12.075C36.396 11.3036 35.4688 10.6105 34.4896 10.0151C33.5019 9.41441 32.4523 8.90777 31.3704 8.50943C30.2693 8.10396 29.1235 7.80679 27.9652 7.62632C26.7755 7.44097 25.5576 7.37633 24.3463 7.43414C24.2263 7.44 24.1058 7.44693 23.9854 7.45523C23.8646 7.46343 23.7442 7.47291 23.6236 7.48355C23.5044 7.4941 23.3841 7.50601 23.2639 7.51929C23.1423 7.53238 23.0224 7.54673 22.9025 7.56226C22.7828 7.57779 22.6627 7.59449 22.5431 7.61246C22.4234 7.63043 22.3042 7.64947 22.185 7.66978C22.0659 7.69009 21.9469 7.71167 21.8284 7.73433C21.7105 7.75689 21.5925 7.78082 21.4749 7.80582C20.4162 8.03082 19.3762 8.35054 18.3835 8.75591C17.4115 9.15269 16.4697 9.63785 15.5841 10.1981C15.1125 10.4963 14.4888 10.3557 14.1907 9.88443C13.8926 9.41305 14.033 8.78922 14.5044 8.49107C15.4902 7.86754 16.5384 7.3274 17.6198 6.88589C18.7233 6.43521 19.879 6.08003 21.0547 5.83013C21.1853 5.8023 21.3171 5.77564 21.4491 5.75035C21.5812 5.72515 21.7132 5.70122 21.8454 5.67866C21.978 5.65611 22.1107 5.63482 22.2436 5.61489C22.3764 5.59497 22.5097 5.57642 22.6429 5.55913C22.777 5.54185 22.9107 5.52593 23.0446 5.51138C23.1769 5.49683 23.311 5.48365 23.4451 5.47163C23.58 5.45972 23.7137 5.44927 23.8478 5.44009C23.9817 5.43101 24.1159 5.4231 24.2497 5.41665C25.5975 5.3522 26.9521 5.42427 28.2763 5.63052C29.5663 5.83159 30.842 6.16245 32.0684 6.61392C33.2723 7.05728 34.4401 7.62105 35.5389 8.28931C36.6275 8.95123 37.6586 9.72164 38.6034 10.5792C39.548 11.4362 40.4147 12.3879 41.179 13.4077C41.9509 14.4377 42.6245 15.5453 43.1816 16.6997C43.7493 17.8767 44.2018 19.1143 44.5261 20.3781C44.8592 21.6752 45.0614 23.0161 45.1272 24.3635C45.1293 24.4099 45.137 24.5751 45.1453 24.8473C45.1554 25.1891 45.1622 25.5596 45.1657 25.949C45.1703 26.5067 44.7221 26.9629 44.1644 26.9677C44.1614 26.9678 44.1584 26.9678 44.1555 26.9678Z" fill="#004B87"></path><path d="M37.823 46.2855C37.6072 46.2855 37.3923 46.2165 37.2125 46.0801C36.8769 45.8257 36.7347 45.3898 36.8553 44.9863C36.8913 44.8654 36.9272 44.744 36.9626 44.6219C36.9985 44.4978 37.0338 44.3753 37.0683 44.2525C37.103 44.1292 37.1376 44.0048 37.172 43.8803C37.2057 43.7566 37.2394 43.6319 37.273 43.5065C37.306 43.3822 37.3391 43.2567 37.3717 43.131C37.4042 43.0054 37.4362 42.8792 37.468 42.7524C37.4998 42.6259 37.5313 42.4983 37.5625 42.3706C37.5935 42.2432 37.6241 42.1157 37.6544 41.9875C37.9 40.9457 38.1234 39.8568 38.318 38.7512C38.4951 37.7436 38.653 36.6971 38.7871 35.641C38.9071 34.694 39.0105 33.7202 39.0939 32.7471C39.1669 31.8929 39.2263 31.022 39.2702 30.1586C39.3075 29.4268 39.3338 28.6889 39.3489 27.9652C39.361 27.385 39.3657 26.81 39.3628 26.2561C39.3607 25.8577 39.3546 25.4757 39.3444 25.1201C39.3371 24.8507 39.3295 24.6876 39.3274 24.6451C39.2807 23.6907 39.1374 22.7402 38.9016 21.8217C38.6719 20.9265 38.3515 20.0503 37.9494 19.2169C37.5547 18.3987 37.077 17.6137 36.53 16.884C36.1954 16.4377 36.2862 15.8047 36.7324 15.4701C37.1784 15.1358 37.8119 15.2261 38.1463 15.6724C38.7715 16.5065 39.3174 17.4037 39.7685 18.3391C40.2286 19.2926 40.5953 20.2954 40.8581 21.3195C41.1276 22.3698 41.2913 23.456 41.3447 24.5479C41.347 24.5956 41.3553 24.7719 41.3635 25.0633C41.3737 25.4343 41.3803 25.832 41.3824 26.2456C41.3853 26.8167 41.3807 27.4094 41.3682 28.0071C41.3529 28.751 41.3255 29.5093 41.2873 30.2609C41.2424 31.1476 41.1815 32.0419 41.1062 32.9193C41.0205 33.9197 40.9144 34.921 40.7909 35.8952C40.6528 36.9832 40.49 38.0619 40.3071 39.1012C40.1058 40.2446 39.8746 41.3718 39.6202 42.451C39.5932 42.5659 39.5657 42.6804 39.5381 42.7946C39.6213 42.7265 39.7038 42.6578 39.7856 42.589C39.9819 42.4234 40.1779 42.2528 40.3676 42.0817C40.5589 41.9093 40.7484 41.7323 40.9311 41.5563C41.1148 41.3791 41.298 41.1962 41.4758 41.013C41.5884 40.8969 41.7016 40.7776 41.814 40.6567C41.9965 39.7256 42.1624 38.7648 42.3082 37.7967C42.4554 36.82 42.5851 35.817 42.6935 34.815C42.7919 33.9086 42.8755 32.9831 42.9423 32.0643C42.9827 31.5081 43.4675 31.0897 44.0226 31.1303C44.579 31.1707 44.9972 31.6544 44.9567 32.2106C44.8882 33.1531 44.8023 34.1027 44.7016 35.0327C44.59 36.0623 44.4567 37.0935 44.3056 38.0975C44.1406 39.1937 43.9502 40.2813 43.7397 41.33C43.7037 41.5089 43.6201 41.6746 43.4977 41.8098C43.309 42.0176 43.1165 42.2228 42.9254 42.4197C42.7325 42.6185 42.5333 42.8173 42.3334 43.0102C42.1344 43.202 41.9283 43.3942 41.7204 43.5818C41.5136 43.7682 41.3006 43.9539 41.0871 44.1337C40.874 44.3134 40.6543 44.4923 40.4344 44.6651C40.2181 44.835 39.9924 45.0067 39.7633 45.1745C39.5354 45.3416 39.3029 45.5059 39.072 45.6634C38.8384 45.8227 38.5995 45.9795 38.3623 46.1294C38.1971 46.2336 38.0097 46.2855 37.823 46.2855Z" fill="#004B87"></path><path d="M9.34114 44.179C9.10511 44.179 8.87024 44.0965 8.68196 43.9344C8.54417 43.8157 8.40755 43.6955 8.27229 43.5739C8.13753 43.4528 8.00315 43.3294 7.87014 43.2046C7.73704 43.0795 7.60569 42.9536 7.47561 42.8259C7.34563 42.6983 7.21682 42.5694 7.08948 42.4389C6.96145 42.3075 6.83547 42.1757 6.71096 42.0422C6.58694 41.9098 6.4636 41.7747 6.34172 41.6384C6.21897 41.5009 6.09856 41.3632 5.97961 41.2241C5.86047 41.0846 5.74279 40.9439 5.62668 40.8015C5.41467 40.5415 5.34553 40.1931 5.4424 39.8718C5.53918 39.5505 5.78918 39.2983 6.10969 39.1988L6.35461 39.125C6.39631 39.1127 6.43899 39.1001 6.48166 39.0881L6.72532 39.0206C6.72659 39.0204 6.72776 39.02 6.72903 39.0197C6.75315 38.9807 6.77766 38.9394 6.80247 38.8962C6.86223 38.7923 6.92366 38.6772 6.98498 38.5541C7.05452 38.4145 7.12463 38.2635 7.19319 38.1052C7.26916 37.9301 7.34544 37.7411 7.42005 37.5435C7.50003 37.3315 7.5803 37.1027 7.65852 36.864C7.74153 36.6101 7.82346 36.34 7.90198 36.0615C7.98567 35.764 8.06721 35.4502 8.14426 35.1288C8.26682 34.6177 8.37971 34.0756 8.47971 33.5174C8.57053 33.0099 8.65266 32.476 8.72415 31.9307C8.78762 31.4444 8.84387 30.9375 8.89094 30.4242C8.93206 29.9738 8.96682 29.5124 8.99417 29.0531C9.01731 28.6627 9.03548 28.2654 9.04807 27.8723C9.05833 27.5533 9.06477 27.2386 9.06751 26.9365C9.06985 26.6721 9.06897 26.457 9.06712 26.2993C9.06556 26.1552 9.06331 26.0606 9.06223 26.0214C9.02063 25.0508 9.06536 24.0743 9.19514 23.119C9.32298 22.1798 9.53479 21.2474 9.82483 20.3476C10.1107 19.4606 10.4765 18.5929 10.9122 17.7687C11.3444 16.9511 11.8509 16.1653 12.418 15.4332C12.9851 14.7012 13.6194 14.0144 14.3036 13.3913C14.9929 12.7636 15.7417 12.1925 16.5294 11.6937C17.3289 11.1878 18.1791 10.7496 19.0566 10.3912C19.9518 10.0255 20.8894 9.73729 21.8431 9.53456C21.9499 9.5119 22.0565 9.49032 22.1632 9.47001C22.269 9.4497 22.3764 9.43026 22.4838 9.412C22.591 9.39364 22.6985 9.37655 22.8061 9.36044C22.9141 9.34423 23.0217 9.32929 23.1296 9.31522C23.2385 9.30106 23.347 9.28817 23.4556 9.27645C23.5636 9.26464 23.6722 9.25399 23.7807 9.24433C23.8893 9.23476 23.9979 9.22616 24.1064 9.21874C24.2146 9.21122 24.3235 9.20507 24.432 9.19979C25.5252 9.14784 26.6226 9.20604 27.6944 9.37294C28.7403 9.53612 29.7739 9.80409 30.7671 10.1697C31.2904 10.3624 31.5585 10.943 31.3659 11.4663C31.1731 11.9896 30.5929 12.258 30.0693 12.0651C29.2011 11.7456 28.2975 11.5112 27.3836 11.3686C26.4459 11.2226 25.4857 11.1715 24.5291 11.2172C24.435 11.2218 24.3399 11.2272 24.2448 11.2338C24.1492 11.2403 24.0538 11.2478 23.9586 11.2561C23.8638 11.2645 23.7691 11.2739 23.6741 11.2843C23.5788 11.2946 23.4841 11.306 23.3898 11.3182C23.2955 11.3304 23.2006 11.3436 23.1059 11.3578C23.012 11.372 22.9177 11.3869 22.8237 11.4029C22.7298 11.419 22.6364 11.4358 22.5432 11.4538C22.4485 11.4719 22.3554 11.4907 22.2625 11.5103C21.4266 11.6881 20.6047 11.9407 19.8205 12.2611C19.0527 12.5747 18.3089 12.958 17.6098 13.4005C16.9211 13.8364 16.2663 14.3359 15.6635 14.8849C15.0654 15.4296 14.5107 16.0303 14.0149 16.6702C13.519 17.3104 13.0759 17.9975 12.6981 18.7124C12.3172 19.4331 11.9974 20.1917 11.7474 20.9672C11.4938 21.7542 11.3085 22.5697 11.1967 23.3911C11.0827 24.2302 11.0436 25.0885 11.0807 25.942C11.0809 25.9473 11.0811 25.9525 11.0813 25.9577C11.0824 25.9952 11.0852 26.1048 11.087 26.2771C11.089 26.4443 11.09 26.6734 11.0874 26.9544C11.0847 27.2718 11.0779 27.6027 11.0671 27.9371C11.0539 28.3485 11.0349 28.7643 11.0107 29.1728C10.9822 29.6534 10.9458 30.1365 10.9027 30.6084C10.8532 31.1476 10.7942 31.6806 10.7273 32.1927C10.6518 32.7693 10.5646 33.3346 10.4683 33.8733C10.3615 34.4701 10.2405 35.0509 10.1088 35.5997C10.0257 35.9466 9.93743 36.2863 9.84651 36.6089C9.76048 36.9143 9.67034 37.2115 9.57845 37.4923C9.49095 37.7594 9.40071 38.0163 9.31028 38.2565C9.22415 38.4847 9.13548 38.704 9.04671 38.9086C8.96389 39.0996 8.87854 39.2834 8.79309 39.4549C8.71399 39.6136 8.63362 39.7643 8.55403 39.9027C8.47952 40.0324 8.40442 40.1533 8.33079 40.2626C8.25921 40.3689 8.1886 40.4644 8.12112 40.5466C8.11458 40.5546 8.10784 40.5625 8.101 40.5704C8.12962 40.6013 8.15833 40.6324 8.18713 40.6631C8.30247 40.7867 8.41858 40.9081 8.53587 41.0284C8.65237 41.1477 8.77093 41.2664 8.89075 41.384C9.01048 41.5015 9.13147 41.6174 9.25374 41.7323C9.28587 41.7625 9.31809 41.7925 9.35032 41.8225C9.41643 41.7486 9.48245 41.6697 9.54778 41.5861C9.68567 41.4099 9.82366 41.2104 9.95774 40.9935C10.0963 40.7694 10.234 40.5216 10.3669 40.2568C10.5031 39.9859 10.637 39.692 10.765 39.3835C10.8958 39.0681 11.0236 38.7304 11.1447 38.3805C11.268 38.0234 11.3877 37.6445 11.5003 37.2546C11.6147 36.8581 11.7247 36.44 11.8275 36.012C11.9677 35.4276 12.096 34.811 12.2089 34.1795C12.3118 33.6042 12.4045 33.0015 12.4845 32.3871C12.556 31.838 12.6184 31.2695 12.67 30.697C12.7201 30.1415 13.2112 29.7322 13.7665 29.7821C14.322 29.8322 14.7317 30.3232 14.6816 30.8787C14.6275 31.4773 14.5621 32.0724 14.4873 32.6479C14.4032 33.2937 14.3056 33.9286 14.1971 34.5349C14.0774 35.2047 13.9409 35.8602 13.7915 36.483C13.6818 36.9408 13.5637 37.3885 13.441 37.8145C13.3188 38.2377 13.1885 38.6499 13.0538 39.0402C12.9195 39.4287 12.7772 39.8043 12.6308 40.1573C12.4841 40.5107 12.3297 40.8492 12.172 41.1632C12.0123 41.4811 11.8454 41.7811 11.6759 42.0553C11.503 42.3353 11.322 42.5964 11.1382 42.8312C10.9481 43.074 10.75 43.2945 10.5494 43.487C10.3386 43.6892 10.1191 43.8661 9.897 44.0123C9.72708 44.124 9.53372 44.179 9.34114 44.179Z" fill="#004B87"></path><path d="M33.0267 48.6139C32.758 48.6139 32.495 48.5067 32.3013 48.3069C32.0266 48.0236 31.942 47.6059 32.0853 47.238C32.1778 47.0001 32.2688 46.76 32.3578 46.5182C32.4465 46.2766 32.5341 46.0324 32.6194 45.7862C32.7049 45.5398 32.7887 45.2916 32.8707 45.0412C32.953 44.7896 33.0334 44.5369 33.1121 44.2819C33.1905 44.0272 33.2671 43.77 33.342 43.5108C33.417 43.251 33.4903 42.9892 33.562 42.7255C33.6331 42.4625 33.7027 42.1966 33.7706 41.9288C33.8381 41.6609 33.9042 41.3908 33.9685 41.1184C34.1996 40.139 34.4096 39.1145 34.5931 38.0735C34.7603 37.1256 34.9089 36.142 35.0349 35.1496C35.1478 34.2618 35.2452 33.3471 35.3239 32.4308C35.3929 31.6272 35.4489 30.8094 35.4903 30.0003C35.5251 29.3153 35.5502 28.6227 35.5645 27.9419C35.5761 27.3962 35.5805 26.857 35.5779 26.3394C35.5758 25.9595 35.5703 25.6015 35.5608 25.2752C35.5537 25.0245 35.547 24.8731 35.5451 24.8336C35.5108 24.1327 35.4057 23.4368 35.2333 22.7637C35.0648 22.1083 34.8303 21.4668 34.5364 20.8572C34.2472 20.2583 33.8976 19.6836 33.4971 19.1493C33.1003 18.6201 32.6504 18.1256 32.159 17.6797C31.6679 17.2339 31.1324 16.8337 30.567 16.4901C29.9964 16.143 29.3904 15.8506 28.766 15.6205C28.13 15.3865 27.4688 15.215 26.8001 15.1108C26.1137 15.0038 25.4103 14.9666 24.7101 14.9998C24.6414 15.0031 24.5719 15.0071 24.5024 15.0119C24.431 15.0168 24.3614 15.0224 24.2917 15.0285C24.2232 15.0347 24.1537 15.0414 24.0845 15.049C24.0133 15.0567 23.944 15.065 23.8746 15.074C23.8057 15.0829 23.7359 15.0926 23.6664 15.1029C23.5985 15.1132 23.5289 15.1244 23.4594 15.1361C23.3913 15.1477 23.3231 15.1601 23.2551 15.1731C23.1851 15.1865 23.1171 15.2003 23.0496 15.2145C22.436 15.345 21.8331 15.5304 21.258 15.7654C20.6952 15.9953 20.1502 16.2764 19.6381 16.6008C19.1335 16.9203 18.6538 17.2864 18.2121 17.689C17.7737 18.0888 17.3676 18.5292 17.0052 18.9979C16.6421 19.4673 16.318 19.971 16.0419 20.4949C15.7634 21.0233 15.5297 21.5795 15.3473 22.1482C15.1622 22.7248 15.0274 23.3227 14.9465 23.9253C14.8722 24.4781 14.3632 24.8662 13.8112 24.7918C13.2583 24.7176 12.8704 24.2093 12.9446 23.6565C13.0414 22.936 13.2028 22.2209 13.424 21.5312C13.6423 20.8508 13.922 20.1854 14.2551 19.5534C14.5854 18.9266 14.9732 18.3239 15.4074 17.7623C15.8408 17.2018 16.3267 16.675 16.8513 16.1965C17.3798 15.7147 17.9536 15.2768 18.5573 14.8945C19.1697 14.5065 19.8213 14.1705 20.4941 13.8956C21.18 13.6152 21.8986 13.3943 22.6296 13.2389C22.7115 13.2215 22.7935 13.2049 22.8758 13.1892C22.9561 13.1737 23.0387 13.1588 23.1213 13.1448C23.2032 13.1308 23.2848 13.1178 23.3667 13.1055C23.4507 13.093 23.5331 13.0814 23.6157 13.0708C23.6993 13.06 23.7823 13.0501 23.8653 13.0411C23.947 13.0321 24.0305 13.0239 24.1139 13.0165C24.1979 13.0091 24.2809 13.0025 24.3643 12.9969C24.4462 12.9912 24.5296 12.9864 24.613 12.9824C25.45 12.9425 26.2904 12.9872 27.1111 13.1152C27.9112 13.2398 28.7027 13.445 29.4635 13.7252C30.2103 14.0002 30.9347 14.3498 31.6163 14.7644C32.2908 15.1745 32.9304 15.6522 33.5165 16.1843C34.1028 16.7165 34.6401 17.3066 35.1132 17.9383C35.5918 18.5765 36.0097 19.2634 36.3554 19.9798C36.7073 20.7095 36.9879 21.4772 37.1895 22.2618C37.3959 23.0669 37.5213 23.8984 37.5623 24.7336C37.5643 24.7755 37.5719 24.9425 37.5798 25.2183C37.5895 25.5598 37.5954 25.9338 37.5976 26.3293C37.6004 26.8644 37.5956 27.4215 37.5837 27.9848C37.569 28.6857 37.5433 29.3986 37.5074 30.1036C37.4649 30.9358 37.4073 31.7772 37.3363 32.604C37.2551 33.5476 37.155 34.4899 37.0386 35.4047C36.9085 36.4288 36.7548 37.445 36.5823 38.4244C36.3921 39.503 36.1742 40.5656 35.9342 41.5824C35.8674 41.8652 35.7989 42.1459 35.7285 42.4247C35.6579 42.7034 35.5854 42.9801 35.5112 43.2545C35.4364 43.5296 35.3603 43.8019 35.2824 44.0718C35.2042 44.3425 35.1241 44.6108 35.0419 44.877C34.9598 45.1436 34.876 45.4075 34.7902 45.6693C34.7747 45.7167 34.7591 45.7643 34.7434 45.8117C34.8532 45.7605 34.9611 45.7089 35.0665 45.6579C35.2583 45.5644 35.4502 45.4677 35.6368 45.3707C35.8249 45.2724 36.0132 45.1707 36.1953 45.0693C36.3819 44.9652 36.5666 44.8589 36.7443 44.7531C36.818 44.7094 36.891 44.6656 36.9629 44.6214C36.999 44.4976 37.034 44.3753 37.0685 44.253C37.1032 44.1297 37.1378 44.0053 37.1721 43.8808C37.2059 43.7571 37.2396 43.6324 37.2732 43.507C37.3062 43.3828 37.3393 43.2572 37.3718 43.1315C37.4044 43.0059 37.4364 42.8797 37.4682 42.7529C37.5 42.6264 37.5315 42.4989 37.5627 42.3711C37.5937 42.2437 37.6243 42.1163 37.6545 41.988C37.9002 40.9462 38.1236 39.8574 38.3181 38.7517C38.4953 37.7441 38.6532 36.6976 38.7873 35.6415C38.9073 34.6946 39.0107 33.7207 39.0941 32.7476C39.1671 31.8934 39.2264 31.0225 39.2704 30.1591C39.3077 29.4274 39.334 28.6894 39.3491 27.9657C39.3612 27.3856 39.3659 26.8106 39.363 26.2567C39.3609 25.8582 39.3548 25.4762 39.3446 25.1206C39.3373 24.8512 39.3297 24.6881 39.3276 24.6456C39.2808 23.6912 39.1376 22.7407 38.9018 21.8222C38.672 20.9271 38.3517 20.0508 37.9496 19.2174C37.5548 18.3992 37.0772 17.6143 36.5301 16.8845C36.1956 16.4382 36.2864 15.8052 36.7326 15.4706C37.1786 15.1363 37.8121 15.2267 38.1464 15.6729C38.7716 16.507 39.3175 17.4042 39.7687 18.3396C40.2288 19.2932 40.5955 20.2959 40.8583 21.32C41.1278 22.3703 41.2915 23.4566 41.3449 24.5484C41.3473 24.5961 41.3554 24.7724 41.3636 25.0638C41.3739 25.4348 41.3804 25.8325 41.3826 26.2461C41.3855 26.8172 41.3808 27.4099 41.3683 28.0076C41.3531 28.7515 41.3257 29.5098 41.2875 30.2614C41.2425 31.1481 41.1817 32.0424 41.1064 32.9199C41.0207 33.9202 40.9146 34.9215 40.7911 35.8957C40.653 36.9837 40.4902 38.0624 40.3073 39.1017C40.106 40.2452 39.8748 41.3723 39.6204 42.4515C39.5888 42.5847 39.5571 42.7175 39.5248 42.8498C39.4927 42.9816 39.4604 43.1129 39.4274 43.2439C39.3944 43.376 39.3611 43.5067 39.3273 43.6373C39.2935 43.7679 39.2593 43.8981 39.2248 44.0276C39.19 44.1578 39.1552 44.2867 39.12 44.4151C39.0845 44.5444 39.0488 44.6726 39.0127 44.8003C38.9764 44.929 38.9397 45.0573 38.9025 45.1849C38.8663 45.3108 38.8285 45.4384 38.7908 45.5649C38.721 45.7984 38.5693 45.9986 38.3637 46.1289C38.1754 46.2482 37.9779 46.3694 37.7764 46.489C37.5833 46.604 37.3822 46.7198 37.1793 46.833C36.9807 46.9437 36.7758 47.0543 36.5705 47.1615C36.3671 47.2673 36.1587 47.3722 35.9503 47.4737C35.7464 47.573 35.5341 47.6724 35.3194 47.7697C35.1111 47.8639 34.8954 47.9579 34.6777 48.049C34.4595 48.1403 34.2401 48.2285 34.0248 48.3115C33.8053 48.396 33.5827 48.4786 33.3632 48.5561C33.253 48.5951 33.1394 48.6139 33.0267 48.6139Z" fill="#004B87"></path><path d="M28.4094 49.7507C28.0903 49.7507 27.7864 49.5994 27.5945 49.3374C27.3744 49.0364 27.3378 48.6384 27.4997 48.3025C27.6423 48.0064 27.7835 47.7014 27.9197 47.3957C28.0576 47.086 28.1919 46.7712 28.3194 46.4606C28.4494 46.1434 28.5771 45.8188 28.6989 45.496C28.8224 45.1682 28.943 44.8342 29.0574 44.5037C29.1733 44.1689 29.287 43.8253 29.3956 43.4824C29.5043 43.1384 29.6112 42.7851 29.7124 42.433C29.8154 42.0767 29.9149 41.714 30.0085 41.355C30.1044 40.9878 30.197 40.6159 30.2834 40.2491C30.5002 39.3294 30.6974 38.3692 30.8693 37.3954C31.0259 36.5073 31.1654 35.5862 31.2837 34.6576C31.39 33.8238 31.4812 32.9679 31.5549 32.1141C31.62 31.3582 31.6725 30.5938 31.7113 29.8418C31.7443 29.1967 31.7677 28.5497 31.7811 27.9187C31.7918 27.4048 31.796 26.9014 31.7936 26.4222C31.7918 26.0739 31.7868 25.7397 31.7782 25.4285C31.7715 25.1944 31.7651 25.0527 31.7631 25.0159C31.7414 24.5732 31.6751 24.1318 31.5657 23.7053C31.4591 23.2902 31.3105 22.8835 31.1242 22.4971C30.941 22.1178 30.7193 21.7533 30.4651 21.4142C30.2136 21.0787 29.9281 20.765 29.6163 20.4817C29.3048 20.1993 28.9651 19.9454 28.6063 19.7272C28.2449 19.5074 27.8604 19.3219 27.4643 19.1759C27.0617 19.0277 26.6425 18.919 26.2184 18.8529C25.6672 18.7671 25.2901 18.2507 25.3759 17.6996C25.4617 17.1485 25.9777 16.7714 26.5293 16.8572C27.085 16.9438 27.6343 17.0862 28.1623 17.2806C28.6809 17.4716 29.1833 17.7141 29.656 18.0015C30.124 18.2862 30.5675 18.6175 30.9739 18.9862C31.3806 19.3557 31.7534 19.765 32.0817 20.2029C32.4137 20.6462 32.7035 21.1227 32.9433 21.6192C33.1874 22.1258 33.3822 22.6586 33.5223 23.203C33.6656 23.7617 33.7526 24.3386 33.7809 24.9182C33.783 24.9597 33.79 25.1151 33.7974 25.3724C33.8063 25.6989 33.812 26.0485 33.8137 26.4117C33.8164 26.9086 33.812 27.4299 33.8006 27.9613C33.7871 28.6125 33.7626 29.28 33.7287 29.9452C33.6889 30.7203 33.6347 31.5083 33.5676 32.2874C33.4917 33.1686 33.3976 34.052 33.2876 34.913C33.1653 35.8734 33.0208 36.8267 32.8585 37.7465C32.68 38.7577 32.4751 39.7557 32.2499 40.7125C32.1596 41.0951 32.0632 41.483 31.963 41.8657C31.8649 42.241 31.7609 42.6201 31.6536 42.9922C31.5473 43.3612 31.4357 43.731 31.3215 44.0917C31.2077 44.452 31.088 44.8127 30.9662 45.1644C30.8461 45.512 30.7192 45.8633 30.589 46.2088C30.4603 46.5495 30.3257 46.8916 30.1885 47.2264C30.1652 47.2836 30.1414 47.3411 30.1175 47.3986C30.1286 47.396 30.1399 47.3933 30.151 47.3909C30.2748 47.3624 30.3991 47.3326 30.5229 47.302C30.6467 47.2715 30.7692 47.24 30.8912 47.2078C31.0135 47.1754 31.1348 47.1422 31.2556 47.1081C31.3787 47.0733 31.4995 47.0381 31.62 47.002C31.7402 46.9659 31.8598 46.9288 31.9792 46.8908C32.0711 46.8616 32.1624 46.832 32.2535 46.8019C32.2889 46.7077 32.324 46.613 32.3589 46.5183C32.4477 46.2767 32.5353 46.0325 32.6206 45.7863C32.7061 45.5399 32.7899 45.2917 32.8718 45.0413C32.9541 44.7897 33.0345 44.537 33.1132 44.282C33.1916 44.0273 33.2683 43.7701 33.3432 43.5109C33.4182 43.2511 33.4915 42.9893 33.5631 42.7256C33.6342 42.4626 33.7039 42.1967 33.7717 41.9289C33.8393 41.661 33.9053 41.3909 33.9697 41.1185C34.2007 40.1391 34.4108 39.1146 34.5943 38.0736C34.7615 37.1257 34.9101 36.1421 35.0361 35.1497C35.149 34.2619 35.2463 33.3472 35.3251 32.4309C35.3941 31.6273 35.4501 30.8095 35.4915 30.0004C35.5262 29.3153 35.5513 28.6228 35.5657 27.942C35.5773 27.3963 35.5817 26.8571 35.5791 26.3395C35.577 25.9596 35.5714 25.6016 35.562 25.2753C35.5548 25.0246 35.5482 24.8732 35.5462 24.8337C35.512 24.1328 35.4069 23.4369 35.2344 22.7638C35.066 22.1084 34.8315 21.4669 34.5375 20.8573C34.2484 20.2583 33.8988 19.6837 33.4983 19.1494C33.1015 18.6202 32.6516 18.1257 32.1602 17.6798C31.6691 17.234 31.1335 16.8338 30.5682 16.4902C29.9976 16.1431 29.3915 15.8507 28.7671 15.6206C28.1312 15.3866 27.47 15.2151 26.8013 15.1109C26.1149 15.0039 25.4118 14.9665 24.7113 14.9999C24.6426 15.0032 24.5731 15.0072 24.5035 15.012C24.4322 15.0169 24.3625 15.0225 24.2929 15.0286C24.2243 15.0348 24.1549 15.0415 24.0857 15.0491C24.0145 15.0568 23.9451 15.0651 23.8758 15.0741C23.8069 15.083 23.737 15.0927 23.6676 15.103C23.5996 15.1133 23.5301 15.1245 23.4606 15.1362C23.3925 15.1478 23.3243 15.1601 23.2563 15.1732C23.1863 15.1866 23.1183 15.2004 23.0508 15.2146C22.4371 15.3451 21.8343 15.5305 21.2592 15.7655C20.6964 15.9954 20.1514 16.2765 19.6393 16.6009C19.1347 16.9204 18.655 17.2865 18.2133 17.6891C17.7748 18.0889 17.3688 18.5293 17.0064 18.9979C16.6433 19.4674 16.3192 19.9711 16.0431 20.495C15.7646 21.0234 15.5309 21.5796 15.3485 22.1483C15.1634 22.7249 15.0285 23.3228 14.9477 23.9254C14.8649 24.5406 14.8372 25.1701 14.8653 25.7968C14.8904 26.354 14.459 26.826 13.9019 26.8511C13.3456 26.879 12.8727 26.4447 12.8477 25.8875C12.8141 25.1409 12.8472 24.3902 12.9459 23.6563C13.0427 22.936 13.204 22.221 13.4253 21.5312C13.6436 20.8508 13.9233 20.1854 14.2564 19.5534C14.5866 18.9266 14.9744 18.3239 15.4087 17.7623C15.8421 17.2018 16.3279 16.675 16.8526 16.1965C17.3811 15.7147 17.9549 15.2768 18.5585 14.8945C19.1709 14.5065 19.8226 14.1705 20.4953 13.8956C21.1813 13.6153 21.8998 13.3943 22.6309 13.2389C22.7127 13.2215 22.7948 13.2049 22.8771 13.1892C22.9574 13.1737 23.04 13.1588 23.1226 13.1448C23.2044 13.1308 23.2861 13.1178 23.368 13.1055C23.452 13.093 23.5344 13.0814 23.6169 13.0708C23.7005 13.06 23.7835 13.0501 23.8665 13.0411C23.9483 13.0322 24.0318 13.0239 24.1152 13.0165C24.1992 13.0091 24.2822 13.0025 24.3656 12.9969C24.4475 12.9912 24.5309 12.9864 24.6143 12.9824C25.4513 12.9425 26.2916 12.9872 27.1123 13.1152C27.9124 13.2398 28.7039 13.445 29.4648 13.7252C30.2116 14.0002 30.936 14.3498 31.6175 14.7644C32.292 15.1745 32.9317 15.6522 33.5177 16.1843C34.1041 16.7165 34.6414 17.3066 35.1145 17.9383C35.593 18.5765 36.011 19.2634 36.3567 19.9798C36.7085 20.7095 36.9892 21.4772 37.1908 22.2618C37.3971 23.0669 37.5226 23.8984 37.5635 24.7336C37.5656 24.7755 37.5732 24.9425 37.5811 25.2183C37.5908 25.5598 37.5966 25.9338 37.5989 26.3293C37.6016 26.8644 37.5968 27.4215 37.585 27.9848C37.5703 28.6857 37.5446 29.3986 37.5086 30.1036C37.4662 30.9358 37.4086 31.7772 37.3376 32.604C37.2564 33.5476 37.1563 34.4899 37.0399 35.4047C36.9097 36.4288 36.7561 37.445 36.5835 38.4243C36.3934 39.503 36.1754 40.5656 35.9355 41.5824C35.8687 41.8652 35.8002 42.1459 35.7297 42.4246C35.6591 42.7034 35.5867 42.9801 35.5125 43.2545C35.4377 43.5296 35.3616 43.8019 35.2836 44.0718C35.2054 44.3425 35.1253 44.6108 35.0432 44.877C34.9611 45.1436 34.8773 45.4075 34.7915 45.6693C34.7059 45.9313 34.6182 46.1913 34.5287 46.449C34.4392 46.7068 34.3477 46.9625 34.2544 47.216C34.161 47.4699 34.0659 47.7211 33.9689 47.9703C33.8625 48.2442 33.6417 48.4581 33.3648 48.5562C33.2371 48.6013 33.1091 48.6455 32.9804 48.6888C32.8502 48.7323 32.7213 48.7744 32.5917 48.8157C32.462 48.857 32.3315 48.8972 32.2003 48.9367C32.0691 48.9758 31.9377 49.0142 31.8056 49.0515C31.6747 49.0887 31.5413 49.125 31.4077 49.1604C31.2748 49.1956 31.1407 49.2301 31.0063 49.2632C30.8737 49.296 30.7393 49.328 30.6046 49.3591C30.4685 49.3904 30.3328 49.4205 30.1968 49.4493C30.1293 49.4636 30.0605 49.478 29.9916 49.492L29.7887 49.5323C29.7135 49.5467 29.6455 49.5598 29.5772 49.5722C29.5042 49.5857 29.4376 49.5979 29.3711 49.6096C29.3038 49.6214 29.2345 49.6335 29.165 49.645C29.1007 49.6558 29.0327 49.667 28.9648 49.678C28.8953 49.6892 28.826 49.6999 28.7567 49.7103C28.6911 49.7205 28.6218 49.7308 28.5525 49.7408C28.5046 49.7474 28.4567 49.7507 28.4094 49.7507Z" fill="#004B87"></path><path d="M16.0185 48.2531C15.8913 48.2531 15.7626 48.2291 15.6396 48.1792C15.4807 48.1148 15.3225 48.0489 15.1651 47.9814C15.0066 47.9135 14.8497 47.8443 14.6934 47.7732C14.5373 47.7023 14.3822 47.63 14.2277 47.5562C14.073 47.482 13.9194 47.4066 13.7665 47.3296C13.6128 47.2521 13.4608 47.1734 13.3094 47.0933C13.1587 47.0134 13.0083 46.9315 12.8586 46.8482C12.7088 46.7648 12.5602 46.6802 12.4122 46.5939C12.2642 46.5075 12.1171 46.4199 11.9709 46.3305C11.7048 46.1676 11.529 45.8908 11.4945 45.5807C11.46 45.2707 11.5707 44.9619 11.7946 44.7446C11.9838 44.5607 12.1711 44.3578 12.3512 44.1415C12.5336 43.9227 12.7137 43.684 12.8868 43.4316C13.0613 43.1775 13.2332 42.9024 13.3981 42.6138C13.5648 42.3222 13.7277 42.0104 13.8825 41.6873C14.0398 41.3589 14.1929 41.0104 14.3376 40.6514C14.4848 40.2865 14.6274 39.9016 14.7616 39.5068C14.898 39.1058 15.0295 38.6845 15.1525 38.2544C15.2768 37.8199 15.3967 37.3625 15.509 36.8946C15.6675 36.2344 15.8126 35.5368 15.9404 34.8209C16.0564 34.1701 16.16 33.4925 16.2481 32.8074C16.3276 32.1901 16.3961 31.5555 16.4519 30.921C16.5014 30.3594 16.5418 29.7903 16.5721 29.2288C16.5982 28.7486 16.6173 28.2668 16.6292 27.7968C16.6387 27.418 16.6436 27.0462 16.6437 26.6919C16.644 26.3865 16.6405 26.1453 16.6371 25.9788C16.6339 25.8302 16.6306 25.7432 16.63 25.7256C16.6062 25.2138 16.6285 24.6929 16.6963 24.1833C16.763 23.6825 16.8746 23.1857 17.0278 22.707C17.1786 22.2347 17.3723 21.7722 17.6035 21.3328C17.8324 20.8973 18.1013 20.4783 18.4028 20.0878C18.7037 19.698 19.0409 19.3317 19.4049 18.9993C19.7713 18.6646 20.1699 18.3599 20.5892 18.0938C21.0602 17.795 21.6842 17.9346 21.9831 18.4055C22.2818 18.8765 22.1422 19.5004 21.6712 19.7993C21.3509 20.0025 21.0467 20.235 20.767 20.4905C20.4889 20.7446 20.2314 21.0243 20.0016 21.322C19.7714 21.6203 19.5661 21.9401 19.3913 22.2727C19.2147 22.6083 19.0669 22.9612 18.9517 23.3219C18.8346 23.6877 18.7496 24.067 18.6986 24.4496C18.6465 24.8402 18.6295 25.2398 18.6479 25.6374C18.6492 25.6689 18.6529 25.7678 18.6564 25.9365C18.6601 26.1133 18.6638 26.3691 18.6635 26.6928C18.6634 27.0634 18.6583 27.452 18.6483 27.8475C18.636 28.3369 18.616 28.8382 18.5889 29.3376C18.5574 29.9216 18.5153 30.514 18.4638 31.0979C18.4056 31.7592 18.3341 32.4211 18.2512 33.0651C18.1589 33.7825 18.0503 34.4925 17.9287 35.1754C17.7939 35.9302 17.6407 36.6672 17.473 37.3658C17.354 37.8619 17.2266 38.3476 17.0943 38.8099C16.9622 39.2716 16.8207 39.7246 16.6738 40.1567C16.5276 40.5869 16.3718 41.0074 16.2108 41.4065C16.0501 41.805 15.8797 42.193 15.7041 42.5596C15.5284 42.9267 15.3425 43.2821 15.1517 43.6159C14.9595 43.9521 14.7578 44.2749 14.5521 44.5745C14.3996 44.7967 14.2416 45.0113 14.0808 45.215C14.1388 45.2465 14.197 45.2774 14.2552 45.3085C14.395 45.3825 14.5348 45.455 14.6755 45.5258C14.8157 45.5966 14.9572 45.666 15.0995 45.7341C15.2416 45.8021 15.3845 45.8688 15.5283 45.9342C15.5856 45.9603 15.6432 45.9859 15.7008 46.0116C15.7527 45.9414 15.8042 45.8705 15.8551 45.7987C16.0552 45.5166 16.2506 45.2188 16.436 44.9141C16.6248 44.6041 16.8092 44.2772 16.9846 43.9422C17.1608 43.6052 17.3338 43.2488 17.4986 42.8834C17.6636 42.5171 17.8247 42.1316 17.9771 41.7378C18.1295 41.3441 18.2784 40.9293 18.4196 40.5043C18.5604 40.08 18.6966 39.6359 18.8245 39.1848C18.9528 38.7316 19.0763 38.2584 19.1916 37.778C19.3676 37.0443 19.528 36.2738 19.6683 35.4876C19.7958 34.7743 19.9097 34.0298 20.007 33.275C20.0935 32.6036 20.1683 31.9091 20.2295 31.2109C20.2828 30.6015 20.3264 29.9805 20.359 29.3656C20.3865 28.8467 20.4066 28.3226 20.4187 27.8085C20.4282 27.4022 20.4326 26.9985 20.4318 26.6091C20.4313 26.342 20.4281 26.0822 20.4222 25.8371C20.4181 25.6729 20.4142 25.5789 20.4136 25.5648C20.3986 25.2402 20.4163 24.9145 20.4659 24.5963C20.5145 24.2856 20.5941 23.9784 20.7029 23.6832C20.8101 23.3924 20.9458 23.1116 21.1064 22.8479C21.266 22.5859 21.4512 22.3382 21.657 22.1122C21.8634 21.8851 22.0923 21.6772 22.3371 21.4943C22.5851 21.309 22.8518 21.1472 23.1301 21.0137C23.413 20.8777 23.7114 20.7692 24.0168 20.6913C24.3293 20.6117 24.6519 20.5634 24.9761 20.5477C25.301 20.5323 25.627 20.5495 25.945 20.5987C26.2566 20.6471 26.5638 20.7265 26.8585 20.8347C27.1476 20.9408 27.4288 21.0761 27.6933 21.2366C27.9554 21.3959 28.2032 21.5807 28.4296 21.7863C28.6568 21.9925 28.865 22.2212 29.0481 22.466C29.2331 22.7129 29.3951 22.9793 29.529 23.2574C29.6658 23.5417 29.7746 23.8397 29.8525 24.144C29.9326 24.458 29.9809 24.7804 29.9967 25.1033C29.9985 25.1415 30.0054 25.2865 30.0121 25.5264C30.0204 25.8178 30.0257 26.1531 30.0273 26.4951C30.0295 26.9627 30.0253 27.4484 30.0147 27.9384C30.0019 28.5456 29.979 29.1675 29.9469 29.7872C29.909 30.519 29.8582 31.2538 29.7961 31.9715C29.7246 32.7962 29.6362 33.6206 29.534 34.4219C29.4632 34.9752 28.9587 35.3666 28.404 35.2956C27.8507 35.2248 27.4596 34.719 27.5304 34.1657C27.6294 33.3915 27.7146 32.5945 27.784 31.7971C27.8441 31.1025 27.8931 30.3912 27.9299 29.6827C27.9609 29.0836 27.9829 28.4821 27.9955 27.8951C28.0058 27.4226 28.0097 26.9549 28.0076 26.5048C28.0055 26.0923 27.9987 25.7762 27.993 25.5837C27.9871 25.3661 27.9809 25.235 27.9795 25.2009C27.9703 25.0137 27.942 24.8262 27.8957 24.6442C27.851 24.4697 27.7882 24.2976 27.7093 24.1337C27.6321 23.9736 27.5386 23.8197 27.4314 23.6765C27.3251 23.5344 27.2044 23.4018 27.0723 23.2821C26.9409 23.1628 26.7972 23.0555 26.6451 22.963C26.4924 22.8704 26.3299 22.7921 26.1629 22.7309C25.9925 22.6684 25.8152 22.6226 25.6355 22.5947C25.4515 22.5662 25.2625 22.5562 25.073 22.5652C24.8846 22.5743 24.697 22.6023 24.5159 22.6484C24.3401 22.6932 24.1681 22.7558 24.005 22.8342C23.8441 22.9116 23.6898 23.005 23.5464 23.1124C23.4044 23.2184 23.2714 23.3392 23.1512 23.4713C23.0319 23.6025 22.9245 23.7462 22.8317 23.8985C22.7387 24.0511 22.6602 24.2136 22.5983 24.3816C22.5356 24.5515 22.4897 24.729 22.4617 24.9082C22.4329 25.0926 22.4226 25.2821 22.4313 25.471C22.4315 25.4767 22.4365 25.5874 22.4416 25.7882C22.4477 26.049 22.4511 26.3236 22.4517 26.6055C22.4524 27.0119 22.4479 27.4325 22.438 27.8557C22.4254 28.39 22.4046 28.934 22.3761 29.4727C22.3422 30.1106 22.297 30.755 22.2419 31.3874C22.1783 32.1128 22.1004 32.8347 22.0104 33.5333C21.9088 34.3207 21.7899 35.0977 21.6568 35.8429C21.5095 36.6677 21.341 37.4774 21.1557 38.2494C21.034 38.7563 20.9036 39.2563 20.7678 39.7354C20.632 40.2151 20.4869 40.6882 20.3365 41.1413C20.1848 41.5977 20.0248 42.0435 19.8606 42.4674C19.6951 42.8949 19.5199 43.3142 19.3399 43.7137C19.159 44.115 18.9687 44.5072 18.7741 44.8792C18.5786 45.2528 18.3725 45.6178 18.1615 45.9644C17.9519 46.309 17.73 46.6469 17.5023 46.9678C17.2739 47.2895 17.0359 47.5996 16.7948 47.8895C16.599 48.1249 16.3123 48.2531 16.0185 48.2531Z" fill="#004B87"></path><path d="M24.9758 50.0002C24.8282 50.0002 24.6812 49.9989 24.5346 49.9963C24.345 49.993 24.1557 49.9875 23.9667 49.9798C23.6129 49.9654 23.2925 49.7667 23.1224 49.4563C22.9522 49.1456 22.957 48.7689 23.1351 48.4627C23.3068 48.1676 23.4778 47.8591 23.6433 47.5458C23.8112 47.2276 23.9761 46.8992 24.1333 46.5703C24.2926 46.2369 24.4508 45.8883 24.6036 45.534C24.7571 45.1776 24.9081 44.8078 25.0522 44.4354C25.1985 44.057 25.3417 43.6656 25.4776 43.2726C25.6154 42.8737 25.7502 42.4605 25.8781 42.0438C26.0072 41.6235 26.1327 41.1874 26.2518 40.7471C26.3972 40.2086 26.9523 39.8902 27.4903 40.0357C28.0289 40.1812 28.3473 40.7356 28.2016 41.274C28.0769 41.7365 27.9444 42.195 27.8089 42.6366C27.6743 43.0754 27.5323 43.5115 27.3866 43.9326C27.2428 44.3487 27.0913 44.763 26.9361 45.1643C26.7828 45.5603 26.6222 45.9536 26.4587 46.3335C26.2956 46.7119 26.1264 47.0846 25.9558 47.4414C25.8717 47.6177 25.7855 47.7939 25.6974 47.9688C25.8463 47.9639 25.9954 47.9579 26.1445 47.95C26.3212 47.941 26.497 47.93 26.6731 47.9167C26.8497 47.9035 27.0261 47.8882 27.2032 47.8708C27.3791 47.8537 27.5548 47.8344 27.7308 47.813C27.7947 47.6748 27.8578 47.5357 27.9197 47.3964C28.0576 47.0866 28.1919 46.7719 28.3194 46.4612C28.4494 46.1441 28.5771 45.8194 28.6989 45.4967C28.8224 45.1689 28.943 44.8349 29.0574 44.5043C29.1733 44.1695 29.287 43.826 29.3957 43.483C29.5044 43.139 29.6112 42.7858 29.7125 42.4336C29.8154 42.0774 29.9149 41.7147 30.0086 41.3557C30.1045 40.9885 30.197 40.6165 30.2835 40.2497C30.5003 39.3301 30.6974 38.3698 30.8693 37.3961C31.0259 36.5079 31.1654 35.5868 31.2838 34.6583C31.39 33.8244 31.4812 32.9686 31.5549 32.1147C31.62 31.3589 31.6725 30.5944 31.7113 29.8425C31.7443 29.1974 31.7677 28.5504 31.7811 27.9193C31.7919 27.4055 31.7961 26.902 31.7936 26.4228C31.7919 26.0746 31.7868 25.7403 31.7782 25.4292C31.7715 25.1951 31.7651 25.0534 31.7631 25.0166C31.7414 24.5738 31.6752 24.1325 31.5657 23.7059C31.4591 23.2909 31.3105 22.8842 31.1242 22.4977C30.941 22.1184 30.7193 21.754 30.4651 21.4148C30.2136 21.0794 29.9281 20.7657 29.6163 20.4824C29.3048 20.2 28.9651 19.9461 28.6063 19.7279C28.2449 19.5081 27.8604 19.3225 27.4643 19.1765C27.0617 19.0284 26.6425 18.9197 26.2184 18.8536C25.6672 18.7677 25.2901 18.2513 25.3759 17.7003C25.4617 17.1492 25.9777 16.772 26.5293 16.8579C27.085 16.9445 27.6343 17.0869 28.1624 17.2812C28.6809 17.4722 29.1834 17.7147 29.656 18.0021C30.124 18.2869 30.5675 18.6181 30.9739 18.9869C31.3806 19.3563 31.7534 19.7657 32.0817 20.2036C32.4137 20.6469 32.7035 21.1233 32.9433 21.6199C33.1875 22.1264 33.3822 22.6593 33.5223 23.2037C33.6656 23.7624 33.7526 24.3392 33.7809 24.9188C33.783 24.9603 33.79 25.1158 33.7974 25.373C33.8063 25.6996 33.812 26.0491 33.8137 26.4124C33.8164 26.9093 33.812 27.4306 33.8006 27.962C33.7871 28.6132 33.7627 29.2807 33.7287 29.9459C33.6889 30.721 33.6347 31.509 33.5676 32.2881C33.4918 33.1692 33.3976 34.0526 33.2877 34.9137C33.1653 35.874 33.0209 36.8273 32.8586 37.7472C32.68 38.7584 32.4752 39.7564 32.2499 40.7132C32.1596 41.0957 32.0632 41.4837 31.963 41.8663C31.8649 42.2416 31.7609 42.6207 31.6536 42.9929C31.5473 43.3618 31.4357 43.7317 31.3215 44.0924C31.2077 44.4527 31.088 44.8134 30.9662 45.1651C30.8462 45.5126 30.7192 45.864 30.589 46.2095C30.4603 46.5501 30.3257 46.8923 30.1885 47.2271C30.0537 47.5563 29.9114 47.8893 29.7655 48.2174C29.6211 48.542 29.4711 48.8657 29.3197 49.18C29.1738 49.4829 28.8865 49.6933 28.5537 49.7411C28.3613 49.7689 28.1691 49.7946 27.977 49.8178C27.7843 49.8411 27.5921 49.8622 27.3998 49.881C27.2077 49.8996 27.0161 49.9163 26.8246 49.9308C26.6325 49.9451 26.4406 49.9572 26.249 49.967C26.0589 49.9771 25.8678 49.9846 25.677 49.9901C25.4865 49.9955 25.2964 49.9986 25.1063 49.9999C25.0625 50.0001 25.0192 50.0002 24.9758 50.0002Z" fill="#004B87"></path><path d="M24.0094 49.9802C23.9957 49.9802 23.9821 49.9799 23.9682 49.9793C23.785 49.9719 23.602 49.9623 23.4193 49.9509C23.2365 49.9395 23.0538 49.9261 22.8718 49.9105C22.6903 49.895 22.5091 49.8776 22.3284 49.8584C22.1459 49.8387 21.9654 49.8173 21.7853 49.7941C21.6044 49.7702 21.4253 49.7452 21.2468 49.7183C21.0663 49.6906 20.8878 49.6614 20.7098 49.6304C20.5322 49.5996 20.3543 49.5664 20.177 49.5315C19.9993 49.4965 19.823 49.4598 19.6472 49.421C19.6469 49.421 19.6467 49.4209 19.6464 49.4209C19.475 49.3831 19.304 49.3438 19.1338 49.3026C18.962 49.2609 18.792 49.2179 18.6227 49.173C18.4532 49.1282 18.2843 49.0814 18.1161 49.0331C17.9477 48.9849 17.7798 48.9349 17.6126 48.8828C17.4458 48.831 17.2796 48.7776 17.1142 48.7225C16.9485 48.6671 16.7835 48.6105 16.6194 48.5519C16.4548 48.4933 16.291 48.4327 16.128 48.3707C15.9653 48.3087 15.8034 48.2452 15.6422 48.18C15.3432 48.0592 15.1198 47.8027 15.0412 47.4901C14.9626 47.1773 15.038 46.8456 15.2444 46.5977C15.4526 46.3475 15.6587 46.0788 15.8572 45.7992C16.0573 45.5171 16.2529 45.2193 16.4381 44.9146C16.6269 44.6046 16.8114 44.2777 16.9867 43.9427C17.1629 43.6057 17.336 43.2493 17.5007 42.8839C17.6657 42.5176 17.8268 42.1321 17.9792 41.7383C18.1317 41.3446 18.2805 40.9298 18.4217 40.5048C18.5625 40.0805 18.6988 39.6364 18.8266 39.1853C18.9549 38.7321 19.0784 38.2589 19.1937 37.7785C19.3698 37.0448 19.5301 36.2743 19.6704 35.4881C19.7979 34.7748 19.9118 34.0303 20.0092 33.2755C20.0956 32.6041 20.1705 31.9096 20.2318 31.2114C20.285 30.602 20.3286 29.981 20.3613 29.3661C20.3887 28.8471 20.4088 28.3231 20.4209 27.809C20.4304 27.4027 20.4348 26.999 20.434 26.6096C20.4335 26.3425 20.4303 26.0827 20.4244 25.8376C20.4203 25.6734 20.4164 25.5794 20.4159 25.5653C20.4008 25.2407 20.4185 24.915 20.4681 24.5967C20.5167 24.2861 20.5964 23.9789 20.7051 23.6837C20.8123 23.3929 20.948 23.1121 21.1086 22.8484C21.2682 22.5864 21.4534 22.3387 21.6592 22.1127C21.8657 21.8856 22.0946 21.6777 22.3394 21.4948C22.5873 21.3095 22.8541 21.1477 23.1324 21.0142C23.4152 20.8782 23.7136 20.7697 24.019 20.6918C24.3317 20.6122 24.6541 20.5639 24.9784 20.5482C25.3033 20.5328 25.6292 20.55 25.9472 20.5992C26.2588 20.6476 26.5661 20.727 26.8607 20.8352C27.1498 20.9413 27.431 21.0765 27.6955 21.2371C27.9577 21.3964 28.2054 21.5812 28.4318 21.7868C28.659 21.993 28.8672 22.2217 29.0503 22.4665C29.2353 22.7133 29.3973 22.9798 29.5312 23.2579C29.668 23.5422 29.7768 23.8402 29.8547 24.1445C29.9348 24.4585 29.9832 24.7809 29.999 25.1038C30.0007 25.142 30.0077 25.287 30.0143 25.5269C30.0226 25.8183 30.0279 26.1536 30.0295 26.4956C30.0317 26.9632 30.0275 27.4489 30.0169 27.9389C30.0042 28.5461 29.9812 29.168 29.9492 29.7877C29.9112 30.5195 29.8604 31.2543 29.7983 31.972C29.7268 32.7967 29.6384 33.6211 29.5362 34.4223C29.4654 34.9757 28.9609 35.3671 28.4062 35.2961C27.8529 35.2253 27.4619 34.7195 27.5327 34.1662C27.6316 33.392 27.7168 32.595 27.7862 31.7976C27.8463 31.103 27.8954 30.3916 27.9321 29.6832C27.9631 29.0841 27.9851 28.4826 27.9977 27.8958C28.0079 27.4231 28.012 26.9554 28.0098 26.5053C28.0078 26.0928 28.0009 25.7767 27.9953 25.5842C27.9893 25.3666 27.9831 25.2355 27.9814 25.2014C27.9725 25.0142 27.9442 24.8267 27.8979 24.6447C27.8533 24.4702 27.7904 24.2981 27.7115 24.1342C27.6343 23.9741 27.5409 23.8202 27.4336 23.677C27.3273 23.5349 27.2066 23.4023 27.0746 23.2826C26.9431 23.1633 26.7995 23.056 26.6473 22.9635C26.4947 22.8709 26.3322 22.7926 26.1651 22.7314C25.9948 22.6689 25.8174 22.6231 25.6377 22.5952C25.4537 22.5667 25.2647 22.5567 25.0752 22.5657C24.8869 22.5748 24.6993 22.6028 24.5181 22.6489C24.3423 22.6937 24.1703 22.7563 24.0073 22.8347C23.8463 22.9121 23.692 23.0055 23.5486 23.1129C23.4066 23.2189 23.2737 23.3397 23.1535 23.4718C23.0341 23.603 22.9267 23.7467 22.8339 23.899C22.741 24.0516 22.6625 24.2141 22.6005 24.3821C22.5378 24.552 22.4919 24.7295 22.4639 24.9087C22.4351 25.0931 22.4248 25.2826 22.4335 25.4715C22.4339 25.4772 22.4387 25.5879 22.4438 25.7887C22.4499 26.0495 22.4534 26.3241 22.4539 26.606C22.4546 27.0124 22.4501 27.433 22.4403 27.8562C22.4277 28.3905 22.4069 28.9345 22.3784 29.4732C22.3446 30.1111 22.2993 30.7554 22.2441 31.3879C22.1805 32.1133 22.1026 32.8352 22.0126 33.5338C21.9111 34.3212 21.7921 35.0982 21.659 35.8434C21.5118 36.6682 21.3432 37.4779 21.1579 38.2499C21.0363 38.7568 20.9058 39.2568 20.7701 39.7359C20.6342 40.2156 20.4891 40.6887 20.3387 41.1418C20.187 41.598 20.027 42.044 19.8628 42.4679C19.6973 42.8954 19.5221 43.3147 19.3421 43.7142C19.1613 44.1155 18.9709 44.5077 18.7763 44.8797C18.5808 45.2533 18.3747 45.6183 18.1637 45.9648C17.9969 46.2393 17.8223 46.5093 17.6431 46.7697C17.6797 46.7821 17.7164 46.7945 17.7532 46.8067C17.9055 46.8575 18.0586 46.9066 18.2123 46.9546C18.3654 47.002 18.5193 47.0478 18.6737 47.0921C18.8284 47.1366 18.9837 47.1796 19.1395 47.2208C19.23 47.2447 19.3208 47.2681 19.4118 47.2911C19.9531 46.4452 20.4556 45.515 20.91 44.5179C21.4222 43.3932 21.8841 42.1589 22.283 40.8496C22.6422 39.6712 22.9578 38.4071 23.2211 37.093C23.4524 35.9392 23.6473 34.7267 23.8006 33.4893C23.9305 32.4398 24.0324 31.3595 24.1033 30.2785C24.1601 29.4108 24.197 28.5433 24.2132 27.7001C24.2202 27.3396 24.2227 27.0152 24.2227 26.7349C24.2227 26.4319 24.2198 26.1804 24.2162 25.9905C24.2094 25.6048 24.199 25.3889 24.199 25.3868C24.1981 25.3705 24.1978 25.3543 24.1978 25.3381C24.1974 24.8025 24.618 24.3555 25.1587 24.3293C25.7132 24.3016 26.1891 24.7316 26.2164 25.2885C26.2169 25.2983 26.2283 25.5335 26.2359 25.9539C26.2393 26.153 26.2425 26.4161 26.2425 26.7326C26.2425 27.0253 26.2398 27.3635 26.2324 27.7389C26.2159 28.613 26.1774 29.5119 26.1184 30.4105C26.0453 31.5302 25.9397 32.6495 25.805 33.7374C25.6455 35.0246 25.4426 36.2869 25.2014 37.4897C24.9251 38.8684 24.5932 40.1969 24.215 41.4382C23.7904 42.8319 23.2968 44.15 22.748 45.355C22.3695 46.1861 21.9587 46.9763 21.5206 47.7171C21.5305 47.7187 21.5404 47.7201 21.5503 47.7217C21.7144 47.7465 21.8802 47.7697 22.0466 47.7916C22.211 47.813 22.3771 47.8325 22.5435 47.8504C22.7088 47.8681 22.8761 47.8843 23.0437 47.8985C23.1751 47.9097 23.3068 47.9197 23.4384 47.9286C23.5079 47.8022 23.5768 47.6743 23.6447 47.5458C23.8125 47.2275 23.9775 46.8992 24.1346 46.5703C24.294 46.2369 24.4522 45.8883 24.6049 45.534C24.7585 45.1775 24.9094 44.8078 25.0536 44.4354C25.1998 44.057 25.343 43.6656 25.4789 43.2726C25.6167 42.8737 25.7516 42.4605 25.8794 42.0438C26.0083 41.6235 26.134 41.1874 26.2532 40.7471C26.3986 40.2086 26.9537 39.8902 27.4916 40.0356C28.0302 40.1812 28.3487 40.7355 28.203 41.274C28.0783 41.7364 27.9457 42.195 27.8103 42.6366C27.6756 43.0754 27.5336 43.5115 27.3881 43.9326C27.2442 44.3487 27.0926 44.763 26.9374 45.1643C26.7841 45.5603 26.6236 45.9536 26.4601 46.3335C26.2969 46.7119 26.1278 47.0846 25.9572 47.4414C25.7887 47.7941 25.6118 48.1467 25.431 48.489C25.2528 48.8269 25.068 49.16 24.8824 49.479C24.7007 49.7899 24.3677 49.9802 24.0094 49.9802Z" fill="#004B87"></path></svg> 