<?xml version="1.0" encoding="UTF-8"?> <svg xmlns="http://www.w3.org/2000/svg" width="60" height="60" viewBox="0 0 60 60" fill="none"><g clip-path="url(#clip0)"><path d="M20.4992 26.1047C27.0414 26.1047 32.4242 20.8875 32.4242 14.5109C32.4242 8.13437 27.0414 3 20.4992 3C13.957 3 8.57422 8.21719 8.57422 14.5937C8.57422 20.9703 13.957 26.1047 20.4992 26.1047ZM20.4992 7.14062C24.8055 7.14062 28.2836 10.4531 28.2836 14.5937C28.2836 18.7344 24.8055 22.0469 20.4992 22.0469C16.193 22.0469 12.7148 18.7344 12.7148 14.5937C12.7148 10.4531 16.193 7.14062 20.4992 7.14062Z" fill="#004B87"></path><path d="M20.4996 29.2512C9.23711 29.2512 0.0449219 38.4434 0.0449219 49.7059V52.1903C0.0449219 54.2606 1.70117 55.9168 3.77148 55.9168H37.2277C39.298 55.9168 40.9543 54.2606 40.9543 52.1903V49.7059C40.9543 38.4434 31.7621 29.2512 20.4996 29.2512ZM36.8137 51.859H4.18555V49.7887C4.18555 40.7622 11.473 33.4747 20.4996 33.4747C29.5262 33.4747 36.8137 40.7622 36.8137 49.7887V51.859Z" fill="#004B87"></path><path d="M58.1231 29.3761H36.874C35.839 29.3761 34.999 28.5361 34.999 27.5012C34.999 26.4662 35.839 25.6262 36.874 25.6262H58.1231C59.1581 25.6262 59.9981 26.4662 59.9981 27.5012C59.9981 28.5361 59.1581 29.3761 58.1231 29.3761Z" fill="#004B87"></path><path d="M48.1235 39.3756C47.6433 39.3756 47.1636 39.193 46.7983 38.8258C46.0659 38.093 46.0659 36.9056 46.7983 36.1732L55.4731 27.4984L46.7983 18.8236C46.0659 18.0912 46.0659 16.9038 46.7983 16.1714C47.5307 15.439 48.7181 15.439 49.451 16.1714L59.4505 26.1709C60.1829 26.9033 60.1829 28.0912 59.4505 28.8236L49.451 38.8231C49.0834 39.193 48.6032 39.3756 48.1235 39.3756Z" fill="#004B87"></path></g><defs><clipPath id="clip0"><rect width="60" height="60" fill="white"></rect></clipPath></defs></svg> 