<?xml version="1.0" encoding="UTF-8"?> <svg xmlns="http://www.w3.org/2000/svg" width="60" height="60" viewBox="0 0 60 60" fill="none"><path fill-rule="evenodd" clip-rule="evenodd" d="M36.9361 46.4285L35.4397 47.9239C35.3561 48.0083 35.2804 48.1002 35.2138 48.1985C34.8234 48.7854 34.0535 49.7661 33.2926 49.7661C32.4142 49.7661 31.3696 48.6211 31.0045 48.0738C30.8415 47.8232 30.6188 47.6169 30.3563 47.4735C30.0939 47.3301 29.7999 47.254 29.5008 47.2521H29.4882C29.1907 47.252 28.8978 47.3254 28.6355 47.4656C28.3732 47.6058 28.1496 47.8085 27.9845 48.0558C27.5869 48.6536 26.8007 49.656 26.0127 49.6596C25.1452 49.6596 24.1223 48.5759 23.768 48.0558C23.5491 47.7252 23.2269 47.4762 22.8516 47.3478C22.4762 47.2194 22.069 47.2188 21.6932 47.346C20.311 47.7779 18.8916 48.0802 17.4533 48.249C18.1283 47.4219 18.6676 46.4928 19.0509 45.4966C19.444 44.4508 19.589 43.3282 19.4745 42.2169C19.36 41.1057 18.9892 40.0361 18.3912 39.0923C17.7173 37.6999 16.6382 36.5435 15.2953 35.7745C13.9525 35.0056 12.4084 34.66 10.8656 34.783C9.13225 35.0299 7.49976 35.7468 6.14556 36.8558C4.79135 37.9649 3.76724 39.4236 3.18451 41.0735C2.67811 42.3287 2.55323 43.7052 2.8255 45.0309C3.09778 46.3567 3.75511 47.5728 4.71531 48.5272C5.73767 49.5412 6.94998 50.3439 8.28295 50.8895C5.63089 52.3474 2.85999 53.5781 0 54.5685L1.14223 58C5.45357 56.5473 9.55422 54.5324 13.338 52.0075C16.1271 52.1351 18.9195 51.838 21.6191 51.1261C22.1695 51.7596 22.8414 52.2764 23.5952 52.6458C24.3489 53.0153 25.1691 53.23 26.0073 53.2771C27.3255 53.258 28.5857 52.7321 29.5261 51.8088C30.5426 52.7648 31.8691 53.3238 33.2637 53.3837H33.2944C34.2875 53.3259 35.2501 53.0187 36.0929 52.4905C36.9357 51.9624 37.6317 51.2303 38.1163 50.3621L39.5043 48.9751L36.9361 46.4285ZM12.3187 48.2563C13.7652 47.2367 14.9167 45.8536 15.6568 44.2468C15.865 43.7092 15.9404 43.1312 15.8765 42.5584C15.8126 41.9855 15.6114 41.4365 15.2899 40.9579C14.9613 40.2323 14.4431 39.6085 13.7899 39.1521C13.1367 38.6958 12.3725 38.4237 11.5777 38.3644C11.4566 38.3644 11.3373 38.3716 11.2162 38.3825C10.1681 38.5676 9.18775 39.027 8.37503 39.7139C7.56231 40.4007 6.94622 41.2905 6.58947 42.2926C6.32269 42.9044 6.24504 43.5819 6.36645 44.2381C6.48786 44.8943 6.80279 45.4992 7.27083 45.9752C8.66602 47.2554 10.4353 48.0549 12.3187 48.2563Z" fill="#004B87"></path><path d="M58.4357 5.41365C55.6206 4.34334 52.6974 3.1873 49.9084 2.1729C49.2522 1.93421 48.5064 1.94145 47.947 2.20213C47.3876 2.46281 46.9363 2.80923 46.6974 3.46501L34.5611 36.2761C34.5312 36.3581 34.5014 36.4401 34.5536 36.5519L36.0491 48.5141L36.0714 48.7078C36.1123 49.2333 36.4589 49.6843 36.9212 49.9453C37.6036 50.2398 38.4091 50.0687 38.976 49.5322L47.7602 41.3554C47.8161 41.3293 47.9019 41.2213 47.9318 41.1393L59.8443 8.43245C60.0832 7.77667 60.0423 7.25124 59.7553 6.6363C59.4684 6.02136 58.9017 5.53676 58.4357 5.41365ZM44.9715 39.3199L38.8207 45.1127L37.7791 36.7503L46.5043 13.5598L53.4767 16.0958L44.9715 39.3199ZM54.5553 13.0069L47.5828 10.4709L49.3145 5.71653C51.6933 6.58175 54.0722 7.44698 56.3652 8.42025L54.5553 13.0069Z" fill="#004B87"></path></svg> 